$MeshFormat
2.2 0 8
$EndMeshFormat
$Nodes
798
1 -10 0 0
2 0 0 0
3 9.396926207859085 3.420201433256687 0
4 9.396926207859085 -3.420201433256687 0
5 -10 0 -5
6 0 0 -5
7 9.396926207859085 3.420201433256687 -5
8 9.396926207859085 -3.420201433256687 -5
9 -9.499999999999998 0 0
10 -8.999999999999998 0 0
11 -8.499999999999996 0 0
12 -7.999999999999996 0 0
13 -7.499999999999995 0 0
14 -6.999999999999994 0 0
15 -6.499999999999993 0 0
16 -5.999999999999991 0 0
17 -5.49999999999999 0 0
18 -4.999999999999989 0 0
19 -4.499999999999988 0 0
20 -3.999999999999988 0 0
21 -3.499999999999987 0 0
22 -2.999999999999985 0 0
23 -2.499999999999984 0 0
24 -1.999999999999982 0 0
25 -1.499999999999988 0 0
26 -0.9999999999999911 0 0
27 -0.4999999999999964 0 0
28 0.4698463103919538 0.1710100716624702 0
29 0.9396926207840172 0.3420201433249803 0
30 1.409538931175857 0.5130302149874092 0
31 1.87938524156741 0.6840402866497334 0
32 2.349231551959016 0.855050358312077 0
33 2.819077862350556 1.026060429974397 0
34 3.288924172742096 1.197070501636716 0
35 3.75877048313376 1.368080573299081 0
36 4.228616793525453 1.539090644961456 0
37 4.698463103916993 1.710100716623776 0
38 5.168309414310981 1.881110788286986 0
39 5.638155724705391 2.05212085995035 0
40 6.1080020350994 2.223130931613569 0
41 6.577848345493803 2.394141003276931 0
42 7.047694655887836 2.565151074940157 0
43 7.517540966281867 2.736161146603384 0
44 7.987387276676271 2.907171218266746 0
45 8.457233587070558 3.078181289930065 0
46 8.927079897464834 3.249191361593381 0
47 0.4698463103919538 -0.1710100716624702 0
48 0.9396926207840172 -0.3420201433249803 0
49 1.409538931175857 -0.5130302149874092 0
50 1.87938524156741 -0.6840402866497334 0
51 2.349231551959016 -0.855050358312077 0
52 2.819077862350556 -1.026060429974397 0
53 3.288924172742096 -1.197070501636716 0
54 3.75877048313376 -1.368080573299081 0
55 4.228616793525453 -1.539090644961456 0
56 4.698463103916993 -1.710100716623776 0
57 5.168309414310981 -1.881110788286986 0
58 5.638155724705391 -2.05212085995035 0
59 6.1080020350994 -2.223130931613569 0
60 6.577848345493803 -2.394141003276931 0
61 7.047694655887836 -2.565151074940157 0
62 7.517540966281867 -2.736161146603384 0
63 7.987387276676271 -2.907171218266746 0
64 8.457233587070558 -3.078181289930065 0
65 8.927079897464834 -3.249191361593381 0
66 -9.499999999999998 0 -5
67 -8.999999999999998 0 -5
68 -8.499999999999996 0 -5
69 -7.999999999999996 0 -5
70 -7.499999999999995 0 -5
71 -6.999999999999994 0 -5
72 -6.499999999999993 0 -5
73 -5.999999999999991 0 -5
74 -5.49999999999999 0 -5
75 -4.999999999999989 0 -5
76 -4.499999999999988 0 -5
77 -3.999999999999988 0 -5
78 -3.499999999999987 0 -5
79 -2.999999999999985 0 -5
80 -2.499999999999984 0 -5
81 -1.999999999999982 0 -5
82 -1.499999999999988 0 -5
83 -0.9999999999999911 0 -5
84 -0.4999999999999964 0 -5
85 0.4698463103919538 0.1710100716624702 -5
86 0.9396926207840172 0.3420201433249803 -5
87 1.409538931175857 0.5130302149874092 -5
88 1.87938524156741 0.6840402866497334 -5
89 2.349231551959016 0.855050358312077 -5
90 2.819077862350556 1.026060429974397 -5
91 3.288924172742096 1.197070501636716 -5
92 3.75877048313376 1.368080573299081 -5
93 4.228616793525453 1.539090644961456 -5
94 4.698463103916993 1.710100716623776 -5
95 5.168309414310981 1.881110788286986 -5
96 5.638155724705391 2.05212085995035 -5
97 6.1080020350994 2.223130931613569 -5
98 6.577848345493803 2.394141003276931 -5
99 7.047694655887836 2.565151074940157 -5
100 7.517540966281867 2.736161146603384 -5
101 7.987387276676271 2.907171218266746 -5
102 8.457233587070558 3.078181289930065 -5
103 8.927079897464834 3.249191361593381 -5
104 0.4698463103919538 -0.1710100716624702 -5
105 0.9396926207840172 -0.3420201433249803 -5
106 1.409538931175857 -0.5130302149874092 -5
107 1.87938524156741 -0.6840402866497334 -5
108 2.349231551959016 -0.855050358312077 -5
109 2.819077862350556 -1.026060429974397 -5
110 3.288924172742096 -1.197070501636716 -5
111 3.75877048313376 -1.368080573299081 -5
112 4.228616793525453 -1.539090644961456 -5
113 4.698463103916993 -1.710100716623776 -5
114 5.168309414310981 -1.881110788286986 -5
115 5.638155724705391 -2.05212085995035 -5
116 6.1080020350994 -2.223130931613569 -5
117 6.577848345493803 -2.394141003276931 -5
118 7.047694655887836 -2.565151074940157 -5
119 7.517540966281867 -2.736161146603384 -5
120 7.987387276676271 -2.907171218266746 -5
121 8.457233587070558 -3.078181289930065 -5
122 8.927079897464834 -3.249191361593381 -5
123 -10 0 -0.4999999999995947
124 -10 0 -0.9999999999984134
125 -10 0 -1.499999999996955
126 -10 0 -1.999999999995513
127 -10 0 -2.499999999996205
128 -10 0 -2.999999999996966
129 -10 0 -3.499999999997728
130 -10 0 -3.999999999998489
131 -10 0 -4.499999999999245
132 9.396926207859085 3.420201433256687 -0.4999999999995947
133 9.396926207859085 3.420201433256687 -0.9999999999984134
134 9.396926207859085 3.420201433256687 -1.499999999996955
135 9.396926207859085 3.420201433256687 -1.999999999995513
136 9.396926207859085 3.420201433256687 -2.499999999996205
137 9.396926207859085 3.420201433256687 -2.999999999996966
138 9.396926207859085 3.420201433256687 -3.499999999997728
139 9.396926207859085 3.420201433256687 -3.999999999998489
140 9.396926207859085 3.420201433256687 -4.499999999999245
141 9.396926207859085 -3.420201433256687 -0.4999999999995947
142 9.396926207859085 -3.420201433256687 -0.9999999999984134
143 9.396926207859085 -3.420201433256687 -1.499999999996955
144 9.396926207859085 -3.420201433256687 -1.999999999995513
145 9.396926207859085 -3.420201433256687 -2.499999999996205
146 9.396926207859085 -3.420201433256687 -2.999999999996966
147 9.396926207859085 -3.420201433256687 -3.499999999997728
148 9.396926207859085 -3.420201433256687 -3.999999999998489
149 9.396926207859085 -3.420201433256687 -4.499999999999245
150 0 0 -0.4999999999995947
151 0 0 -0.9999999999984134
152 0 0 -1.499999999996955
153 0 0 -1.999999999995513
154 0 0 -2.499999999996205
155 0 0 -2.999999999996966
156 0 0 -3.499999999997728
157 0 0 -3.999999999998489
158 0 0 -4.499999999999245
159 -7.249999999999984 0 -0.433012701892325
160 -4.249999999999913 0 -0.4330127018921861
161 -5.74999999999982 0 -0.433012701892505
162 -2.749999999999984 0 -4.566987298107779
163 -6.74678566681079 0 -4.577320490974788
164 -5.241179869728689 0 -4.608687453562118
165 -2.75000000000037 0 -0.4330127018937647
166 -9.52499955940954 0 -2.680448531542751
167 -0.4701362048161051 0 -2.681848291449694
168 -8.241179869728736 0 -4.608687453561892
169 -0.4442715103579969 0 -1.745399000490176
170 -9.546702957787621 0 -1.742307488956047
171 -1.750000000000021 0 -0.4330127018927991
172 -1.749999999999985 0 -4.566987298107786
173 -3.746785666810771 0 -4.57732049097485
174 -8.250000000000041 0 -0.4330127018922011
175 -0.4436254888247189 0 -3.739792335813503
176 -9.578703610544451 0 -3.745775399956273
177 -9.230662432702506 0 -0.4218481522074767
178 -0.7693375672974492 0 -0.4218481522086045
179 -0.7772202729467447 0 -4.522523585948607
180 -9.222779727053201 0 -4.522523585948457
181 -8.746777072117107 0 -0.4311519436113636
182 -8.499462845352985 0 -0.8657152774042309
183 -7.999910474225594 0 -0.8659737160544649
184 -8.249895553263343 0 -1.298977803324981
185 -7.749967671248297 0 -1.299019440663237
186 -7.999977204085594 0 -1.73203764634151
187 -7.499990812555859 0 -1.732045503195711
188 -7.749994669440629 0 -2.165060431861288
189 -7.249997580333032 0 -2.165062112466016
190 -7.499998708296059 0 -2.598075465587883
191 -6.999999381438546 0 -2.598075854227095
192 -6.74999949362879 0 -2.165063217108064
193 -6.499999812511559 0 -2.598076103107425
194 -6.249999884356873 0 -2.165063442695208
195 -5.999999949478385 0 -2.59807618218544
196 -5.749999972306 0 -2.16506349347286
197 -5.499999986964366 0 -2.598076203828207
198 -5.249999993211856 0 -2.165063505543112
199 -4.999999996696346 0 -2.598076209447191
200 -4.749999998318103 0 -2.165063508491328
201 -4.499999999169368 0 -2.598076210875121
202 -4.249999999581278 0 -2.165063509220751
203 -3.999999999792048 0 -2.598076211234764
204 -3.749999999895643 0 -2.165063509402485
205 -3.499999999948218 0 -2.598076211325112
206 -3.249999999974091 0 -2.165063509448086
207 -2.999999999987317 0 -2.598076211347888
208 -2.749999999993581 0 -2.165063509459633
209 -2.499999999997067 0 -2.598076211353751
210 -2.24999999999842 0 -2.165063509462584
211 -7.249999681622957 0 -3.031088729430745
212 -7.749999731653742 0 -3.031088758315813
213 -5.749999989407609 0 -3.03108890713094
214 -4.249999999827375 0 -3.031088913147332
215 -3.249999999989702 0 -3.031088913241383
216 -1.999999999999441 0 -2.598076211355352
217 -2.249999999999778 0 -3.03108891324765
218 -3.499999999978116 0 -1.732050807558606
219 -4.999999998588025 0 -1.732050806754737
220 -6.499999896330955 0 -1.732050747716042
221 -1.750000000000072 0 -3.031088913248072
222 -7.499999974546007 0 -3.46410160044205
223 -8.249995312254814 0 -2.165060802989974
224 -1.749999999999707 0 -2.1650635094634
225 -1.999999999999547 0 -1.732050807571214
226 -7.999999951034008 0 -3.464101586867188
227 -6.999999942695387 0 -3.464101582053277
228 -2.000000000000411 0 -3.464101615140413
229 -1.500000000000015 0 -1.732050807571508
230 -1.500000000000276 0 -3.464101615140668
231 -7.249993080634047 0 -1.29903411077914
232 -2.500000000000544 0 -3.464101615140214
233 -8.249999947115233 0 -3.03108888271233
234 -8.52232908239456 0 -3.470084669480652
235 -1.246255504293296 0 -2.166523139815176
236 -8.749893066436272 0 -1.298976367554459
237 -7.249999986207598 0 -3.880642970687116
238 -2.250000000000827 0 -3.897114317032759
239 -1.258575331024664 0 -3.026080850579043
240 -8.750000000001135 0 -3.031088913245639
241 -1.749999999999913 0 -1.29903810567891
242 -1.250000000000011 0 -1.299038105679377
243 -2.249999999999978 0 -1.299038105678875
244 -6.749999996916286 0 -3.887857079549023
245 -6.49999998993578 0 -3.462558736710887
246 -6.24999999943033 0 -3.888135743059445
247 -2.750000000000931 0 -3.897114317032558
248 -8.241373323192075 0 -3.874636226395842
249 -8.750000000001403 0 -3.897114317030471
250 -0.9284605030096886 0 -3.482471586911837
251 -1.255109353117176 0 -3.892514868819823
252 -1.500000000000047 0 -0.8660254037859311
253 -1.00322292788299 0 -0.8641646455055413
254 -0.7554051547970326 0 -1.292779660506071
255 -0.4612753634718231 0 -0.8135454088578229
256 -1.253760082530081 0 -0.430841817232146
257 -2.000000000000233 0 -0.8660254037854466
258 -2.500000000000435 0 -0.866025403786729
259 -2.749999999999932 0 -1.299038105679627
260 -3.000000000000335 0 -0.8660254037870827
261 -3.250000000000677 0 -0.4330127018943928
262 -3.500000000000014 0 -0.8660254037859852
263 -0.4330127018928422 0 -3.249999999997412
264 -9.572305031479123 0 -3.237703988581759
265 -9.079943790886922 0 -3.482991248697155
266 -2.999999999998915 0 -3.464101615139042
267 -3.250000000000971 0 -3.897114317032352
268 -3.499999999998656 0 -3.464101615138694
269 -3.750000000000988 0 -3.897114317032168
270 -3.999999999971564 0 -3.46410161512287
271 -4.249999999996111 0 -3.880642978649002
272 -4.499999999966255 0 -3.461356392056286
273 -4.737651817614407 0 -3.886782330366311
274 -4.997941969597294 0 -3.461922080181316
275 -5.235250782155763 0 -3.871553801780961
276 -4.473245604842234 0 -4.260275657179648
277 -4.749656994209539 0 -3.030268119825735
278 -5.500000000000858 0 -3.464101615139303
279 -0.9876899329110684 0 -1.734935334272498
280 -0.7453266779624184 0 -2.19613032956323
281 -0.9997834767535549 0 -2.603010740744944
282 -7.499978537684651 0 -0.866013012511033
283 -6.999995269719737 0 -0.8660226727561483
284 -6.749999211619928 0 -0.4330122467209126
285 -6.499999080223175 0 -0.8660248727513851
286 -6.749997887818006 0 -1.299036886208189
287 -6.249999477395269 0 -1.299037803951233
288 -5.999999871731498 0 -1.732050733513793
289 -5.749999891520877 0 -1.29903804304709
290 -5.999999815373545 0 -0.8660252971908952
291 -5.499999965106168 0 -0.8660253836392567
292 -5.249999994184231 0 -0.4330126985347885
293 -4.999999993214502 0 -0.8660253998675951
294 -5.249999974738138 0 -1.299038091092603
295 -4.749999994422967 0 -1.29903810245797
296 -4.499999998484894 0 -1.732050806695481
297 -4.249999998817539 0 -1.299038104995252
298 -1.750000000000699 0 -3.89711431703298
299 -2.250000000000117 0 -0.4330127018929255
300 -7.749981501985042 0 -0.4330020220583373
301 -6.749999801367474 0 -3.030831653129335
302 -6.249999923783603 0 -3.030788866233829
303 -7.736214023450369 0 -3.883493510618609
304 -7.473005970183579 0 -4.259727519227677
305 -6.999996458550115 0 -1.732048762912193
306 -8.499989636958983 0 -1.732044824464006
307 -8.74999749153622 0 -2.165062061198278
308 -6.249999999999992 0 -4.566987298107781
309 -5.749249988922499 0 -4.587212857475404
310 -3.249999999999986 0 -4.566987298107781
311 -8.996132569434758 0 -0.8637925417062982
312 -9.242965350519867 0 -1.2921921015947
313 -9.006591417206657 0 -1.732607725538012
314 -9.248827216785081 0 -2.186268385867804
315 -3.74999999992126 0 -3.031088913201692
316 -2.249999999999983 0 -4.566987298107785
317 -1.270499424789031 0 -4.59226874986626
318 -8.997446997486939 0 -2.604240057874287
319 -1.500000000000219 0 -2.598076211355893
320 -8.72803055349892 0 -4.599218775774905
321 -5.2500000000006 0 -3.031088913247163
322 -5.499999950349398 0 -1.732050778904032
323 -6.249999885034978 0 -0.4330126355172269
324 -2.749999999995554 0 -3.031088913244988
325 -5.999999983759857 0 -3.462298030884301
326 -7.999999293535487 0 -2.598075803475815
327 -5.748244138732034 0 -3.869436329390406
328 -4.749999999453131 0 -0.4330127015766145
329 -4.49999999880085 0 -0.8660254030931918
330 -3.999999999459503 0 -1.732050807258655
331 -8.499573173654971 0 -2.59910275358272
332 -9.53839977976188 0 -0.8134083141842525
333 -2.499999999998585 0 -1.732050807570564
334 -2.999999999995246 0 -1.732050807568712
335 -3.750000000000032 0 -0.4330127018926185
336 -3.249999999995531 0 -1.299038105676561
337 -3.749999999708387 0 -1.299038105509701
338 -3.999999999883741 0 -0.8660254037167705
339 -0.3994591294124876 0 -4.232576995093582
340 -9.604262387149129 0 -4.23357417245068
341 -0.8098836109191575 0 -3.999171452586157
342 -9.190116389081441 0 -3.99917145258613
343 -9.196152422706357 0 -2.999999999999165
344 -0.8041263884057909 0 -3.001040537232751
345 -7.244965272832567 0 -4.622360387872101
346 -4.245005211942345 0 -4.62245174419763
347 -7.990295531092459 0 -4.2540684742935
348 -4.989554679056845 0 -4.254194229807838
349 -9.661857195051022 0 -2.24999999999586
350 -9.665206707126444 0 -1.255097246184644
351 -6.499464277193074 0 -4.230608401317297
352 -8.493713687080264 0 -4.23523833399995
353 -5.999493067379653 0 -4.229071906153402
354 -0.332975001386918 0 -1.264532009979103
355 -5.493828754329247 0 -4.236692763028355
356 -3.499999999999984 0 -4.232050807570435
357 -3.000000000000478 0 -4.232050807570119
358 -2.500000000000365 0 -4.232050807570274
359 -2.000000000000149 0 -4.232050807570511
360 -1.499999999999987 0 -4.232050807570699
361 -7.741574440639554 0 -4.624140639159195
362 -4.741497560928348 0 -4.624268180791205
363 -7.00000000000105 0 -4.231298988642792
364 -4.000000000001112 0 -4.231298988643379
365 -0.329171909987539 0 -2.237079349130097
366 -9.633974596215491 0 -0.3660254037843926
367 -0.3660254037845037 0 -0.3660254037843961
368 -0.3660254037843046 0 -4.633974596215491
369 -9.63397459621569 0 -4.633974596215492
370 -8.884726829305485 0 -4.24533829721126
371 -1.114895030478154 0 -4.243233011418926
372 4.463539948721223 1.624595680792616 -0.4330127018909155
373 2.584154707154785 0.9405553941432366 -0.433012701890916
374 5.873078879902395 2.137625895781959 -0.4330127018931912
375 3.523847327937734 1.282575537467828 -4.566987298108762
376 6.812771500689414 2.479646039108032 -4.566987298108041
377 4.933386259114546 1.795605752455585 -4.566987298107861
378 0.3983276268069965 0.144979399643643 -2.734201453138081
379 7.28261781108487 2.650656110771777 -0.4330127018932314
380 8.955369278150496 3.259487854108786 -2.654549410134918
381 2.114308396762767 0.7695453224807428 -4.566987298107865
382 0.4068988406735068 0.1480990663625825 -1.749999999996234
383 8.979447547949251 3.268251627608164 -1.745399000489682
384 5.873078879901181 2.137625895781517 -4.566987298107935
385 1.644462086371634 0.5985352508185714 -0.4330127018909277
386 7.752464121477485 2.821666182434488 -4.566987298107962
387 3.523847327937928 1.282575537467898 -0.433012701890973
388 0.4233384882565215 0.1540826087446262 -3.797449336158931
389 8.975804780527652 3.266925768696347 -3.793362827353753
390 8.218470369703176 2.991278585770707 -0.4306533549338695
391 1.178455838149142 0.4289228474835171 -4.569346645068179
392 0.3897362948188797 0.1418524105272695 -0.7529661584955041
393 8.971387697815187 3.265318082066718 -0.7959128095284853
394 8.690165829945304 3.162961692937338 -4.576613977471215
395 4.463539948721585 1.624595680792748 -4.566987298107874
396 4.698463103918035 1.710100716624155 -4.133974596216037
397 4.228616793525579 1.539090644961502 -4.13397459621616
398 4.463539948721778 1.624595680792818 -3.700961894324327
399 3.993693638329443 1.453585609130209 -3.700961894324259
400 4.228616793525516 1.539090644961479 -3.26794919243268
401 3.758770483133334 1.368080573298926 -3.267949192432681
402 4.698463103917537 1.710100716623974 -3.267949192432794
403 3.993693638329396 1.453585609130192 -2.834936490541262
404 3.523847327937342 1.282575537467685 -2.834936490541241
405 3.758770483133348 1.368080573298931 -2.401923788649903
406 3.288924172741356 1.197070501636447 -2.401923788649924
407 3.054001017545356 1.111565465805203 -2.834936490541194
408 2.819077862349433 1.026060429973988 -2.401923788649906
409 2.584154707153439 0.9405553941427466 -2.834936490541142
410 2.349231551957502 0.8550503583115259 -2.401923788649847
411 4.228616793525354 1.53909064496142 -2.401923788649863
412 2.114308396761473 0.7695453224802719 -2.834936490541184
413 1.879385241565525 0.6840402866490474 -2.401923788649783
414 3.993693638329344 1.453585609130173 -1.968911086758511
415 4.463539948721443 1.624595680792696 -1.968911086758498
416 3.054001017545419 1.111565465805226 -1.968911086758618
417 2.114308396761578 0.76954532248031 -1.968911086758525
418 2.819077862349342 1.026060429973955 -3.267949192432323
419 1.644462086369358 0.5985352508177432 -2.834936490541202
420 1.644462086369645 0.5985352508178476 -1.968911086758395
421 1.879385241565405 0.6840402866490038 -3.267949192432758
422 1.409538931173115 0.5130302149864112 -3.267949192432804
423 4.228616793525326 1.53909064496141 -1.535898384867123
424 4.698463103917579 1.710100716623989 -1.535898384866935
425 4.933386259113882 1.795605752455343 -1.968911086758701
426 5.168309414310322 1.881110788286746 -1.535898384866685
427 5.403232569506843 1.966615824118179 -1.968911086759042
428 5.638155724703453 2.052120859949645 -1.535898384866521
429 5.873078879900146 2.137625895781141 -1.968911086759183
430 6.108002035096852 2.223130931612641 -1.535898384866415
431 6.342925190293609 2.30863596744416 -1.968911086759182
432 6.108002035096821 2.22313093161263 -2.40192378865197
433 6.577848345490346 2.394141003275672 -2.401923788652017
434 6.812771500687191 2.479646039107223 -1.968911086759251
435 7.047694655883927 2.565151074938734 -2.401923788652083
436 7.271014315218676 2.646432783663051 -1.976040313180108
437 6.342925190293487 2.308635967444116 -2.834936490544762
438 7.504247411830643 2.731322688475541 -2.410091392684153
439 7.280402218672862 2.64984970108254 -2.836297757883585
440 7.738519625195354 2.816590800855956 -2.843504035401956
441 7.739358719874647 2.81689620634295 -2.046083836564917
442 5.87307887990001 2.137625895781091 -2.834936490544699
443 7.514847618163008 2.735180848057602 -3.269603994470434
444 6.108002035096674 2.223130931612576 -3.267949192437406
445 7.984614302605626 2.906161938244638 -3.269652916919469
446 1.879385241565717 0.6840402866491173 -1.535898384867218
447 1.409538931173811 0.5130302149866646 -1.535898384867057
448 7.022553748183421 2.556000532873316 -1.567565774182401
449 5.638155724702788 2.052120859949403 -3.267949192435934
450 3.758770483133353 1.368080573298933 -1.535898384867225
451 2.349231551957571 0.8550503583115511 -1.535898384867342
452 6.577848345490142 2.394141003275597 -3.267949192437539
453 3.523847327937315 1.282575537467675 -3.700961894324403
454 1.644462086369364 0.5985352508177454 -3.700961894324428
455 2.114308396761627 0.769545322480328 -3.70096189432445
456 5.168309414310198 1.881110788286701 -2.401923788650962
457 5.16830941431061 1.881110788286851 -4.133974596216142
458 6.342925190293264 2.308635967444034 -3.7009618943302
459 6.812771500686808 2.479646039107084 -3.700961894330367
460 1.162066647910706 0.4229576700730001 -1.990438607522103
461 3.993693638329219 1.453585609130128 -1.102885682975845
462 2.114308396761743 0.7695453224803704 -1.10288568297608
463 4.933386259113647 1.795605752455257 -1.102885682974774
464 7.751553067777638 2.821334586005925 -3.70152164874768
465 8.208067900272304 2.987492396535005 -3.692965728548435
466 1.18824430294756 0.4324855573093035 -3.692588482061177
467 8.200370731234285 2.984690856117051 -2.872155151761354
468 1.171652860921033 0.4264467662680945 -2.842240237228688
469 3.523847327937377 1.282575537467698 -1.102885682976013
470 2.58415470715352 0.9405553941427761 -1.10288568297621
471 5.873078879899927 2.137625895781061 -1.102885682973719
472 6.339904705115079 2.307536600746133 -1.113218875840414
473 0.8680414467968236 0.3159412487434132 -1.518460382193229
474 1.179159089258199 0.4291788099544286 -1.107491412874028
475 1.879385241566095 0.6840402866492549 -4.133974596216285
476 2.34923155195798 0.8550503583117 -4.133974596215511
477 2.584154707154366 0.9405553941430841 -4.566987298107852
478 2.819077862349665 1.026060429974072 -4.133974596215173
479 5.403232569506325 1.966615824117991 -2.834936490543039
480 4.933386259112762 1.795605752454935 -0.4330127018909168
481 5.403232569506079 1.966615824117901 -0.4330127018935157
482 6.342925190295007 2.308635967444669 -4.566987298108506
483 0.4728956801992482 0.1721199515055956 -3.265075731616182
484 7.751824111117403 2.821433237713796 -0.4326194773999932
485 7.98664059792089 2.906899449425228 -0.8655666418775342
486 8.460013701470864 3.079193168819631 -0.8515109396391924
487 8.234252833675956 2.997022932880177 -1.289413341582301
488 7.754330075319575 2.822345334091523 -1.248194109180582
489 8.695916715319667 3.165054844034283 -1.283568851480856
490 8.485685654715354 3.088536995656099 -1.726683311472681
491 8.710755676105745 3.170455784067859 -2.173821291572619
492 8.232970491346302 2.996556198442044 -2.121581976536112
493 7.517598021606249 2.736181913043164 -0.8481058784076243
494 7.036100669245665 2.560931208905927 -0.8045332954330147
495 6.342925190296404 2.308635967445178 -0.4330127018931903
496 0.3957322975743161 0.1440347770548265 -2.247366908852791
497 0.8503767251963424 0.3095118158842388 -2.461365276961227
498 3.288924172741397 1.197070501636462 -1.535898384867334
499 3.054001017545624 1.111565465805301 -1.102885682976141
500 8.221978613151883 2.992555481960595 -4.568591744668926
501 0.405798719767184 0.1476986550985871 -4.274423651409222
502 6.812268499048736 2.479462961483038 -0.4260572606434938
503 4.46353994872109 1.624595680792567 -1.102885682975662
504 1.644462086369956 0.5985352508179607 -1.102885682975945
505 2.819077862349512 1.026060429974017 -1.535898384867383
506 3.52384732793737 1.282575537467695 -1.968911086758586
507 3.993693638329556 1.45358560913025 -4.566987298108065
508 3.993693638329534 1.453585609130242 -0.4330127018909938
509 7.282617811082892 2.650656110771057 -4.566987298108446
510 5.63815572470339 2.052120859949622 -2.401923788651482
511 2.584154707153502 0.9405553941427696 -1.968911086758603
512 3.054001017546368 1.111565465805572 -0.4330127018909656
513 2.114308396763213 0.7695453224809052 -0.4330127018909218
514 3.288924172741322 1.197070501636434 -3.2679491924325
515 3.758770483133299 1.368080573298913 -4.133974596215866
516 1.193509220626763 0.4344018306303954 -0.3979612844819276
517 3.288924172741466 1.197070501636487 -4.133974596217476
518 8.457233587064977 3.078181289928033 -3.267949192437858
519 8.916931093974778 3.245497499209583 -3.251667935061104
520 6.812402235285759 2.479511637492557 -2.83516336843461
521 6.561551284148383 2.388209358041187 -1.550027708317695
522 4.463539948721365 1.624595680792668 -2.834936490541306
523 5.873078879899462 2.137625895780892 -3.700961894328475
524 7.282017077445333 2.650437461608263 -3.701330987070137
525 1.645102096732467 0.5987681955395365 -4.5673805226014
526 1.412557031091007 0.5141287135205652 -4.133037789415079
527 0.8746778351752859 0.3183566965762036 -4.099815814959933
528 7.046994782126788 2.564896341723392 -3.268379197199653
529 1.392067608055435 0.5066711734183286 -2.416635914610233
530 0.4042630061402225 0.1471397010500161 -1.253571090113107
531 2.349231551957462 0.8550503583115115 -3.267949192432341
532 4.93338625911413 1.795605752455433 -3.700961894324394
533 5.403232569506788 1.966615824118159 -1.102885682974164
534 0.9396926207807386 0.3420201433237871 -3.26794919243277
535 5.40323256950714 1.966615824118288 -4.566987298107972
536 4.698463103917554 1.71010071662398 -2.401923788650124
537 2.584154707153553 0.9405553941427881 -3.700961894323826
538 3.054001017545444 1.111565465805235 -3.700961894324283
539 3.05400101754598 1.111565465805431 -4.56698729810821
540 4.933386259113431 1.795605752455179 -2.834936490541768
541 5.168309414309873 1.881110788286583 -3.267949192433917
542 5.403232569506166 1.966615824117933 -3.700961894325793
543 8.528159959108825 3.103996378176484 -4.091673034595922
544 5.638155724702528 2.052120859949308 -4.133974596216912
545 6.108002035096343 2.223130931612456 -4.133974596217589
546 6.577848345490191 2.394141003275616 -4.133974596217912
547 7.047594533612 2.565114633411966 -4.134036111675369
548 7.517272314677754 2.736063365416098 -4.134139656654478
549 7.996582662744313 2.910518065088099 -4.125979851887234
550 8.677742782930888 3.158440073605201 -0.410637904311115
551 0.7325214553963268 0.2666160057256207 -0.4692717198846549
552 0.7094245604624408 0.2582094234657123 -4.591941049919994
553 9.005827283428628 3.277853066110473 -4.254378417716516
554 0.7609014545521253 0.2769454806668312 -0.9999999999983087
555 0.7419793187691043 0.2700583864730682 -1.995375882216679
556 7.964092030987558 2.898692442236136 -2.460889133927955
557 7.982419627672823 2.905363141895208 -1.668438386454632
558 7.508715716225693 2.73294901827298 -1.617755415826937
559 6.803429427211805 2.476245802435855 -1.167125517113134
560 8.456386096379708 3.077872828544778 -2.524895974023878
561 2.819077862350241 1.026060429974282 -0.7679491924334279
562 3.288924172741952 1.197070501636664 -0.7679491924334135
563 3.758770483133572 1.368080573299013 -0.7679491924334123
564 4.22861679352524 1.539090644961379 -0.7679491924333617
565 2.349231551958488 0.8550503583118849 -0.7679491924334122
566 1.879385241566812 0.684040286649516 -0.7679491924333428
567 1.409538931175842 0.5130302149874036 -0.7679491924327702
568 4.698463103916958 1.710100716623763 -0.7679491924330205
569 9.088120875360456 3.307805484044508 -1.264976132298879
570 5.168309414309284 1.881110788286369 -0.7679491924330868
571 5.638155724703515 2.052120859949667 -0.7679491924336856
572 6.108002035096628 2.223130931612559 -0.7679491924344372
573 6.577848345493265 2.394141003276734 -0.7671973735062954
574 7.2737879429654 2.647442301603794 -1.208879998357282
575 8.613882459906048 3.135196816873535 -3.63480423853091
576 0.786540627407191 0.2862773764172811 -3.650721420741985
577 8.605433545520107 3.132121663525189 -2.908771864704241
578 9.090322061357952 3.30860665022768 -2.24999999999586
579 0.7653837585987056 0.2785769059207174 -2.911607047010083
580 0.343951370955802 0.1251880610629648 -0.3660254037839581
581 0.3439513709567698 0.1251880610633171 -4.633974596214699
582 9.052974836901612 3.295013372193114 -4.633974596214597
583 9.052974836903065 3.295013372193642 -0.3660254037835448
584 1.055126030201851 0.3840344683929359 -0.7485347219343379
585 4.463539948721251 -1.624595680792626 -4.566987298108661
586 2.584154707154785 -0.9405553941432366 -0.433012701890916
587 5.884682375763883 -2.141849222888972 -0.4258834754725944
588 6.812771500688961 -2.479646039107867 -4.566987298107113
589 3.054001017545658 -1.111565465805313 -4.566987298110626
590 3.993693638329606 -1.453585609130269 -0.4330127018909729
591 7.282617811084992 -2.650656110771821 -0.4330127018932531
592 0.3983276268073947 -0.144979399643788 -2.734201453139031
593 8.955369278150574 -3.259487854108814 -2.654549410133884
594 1.644462086371827 -0.5985352508186417 -4.566987298110375
595 5.403232569507058 -1.966615824118258 -4.566987298107077
596 0.4068988406738286 -0.1480990663626996 -1.749999999996302
597 8.979447547949238 -3.268251627608159 -1.745399000489671
598 4.933386259113988 -1.795605752455381 -0.4330127018920438
599 1.644462086371634 -0.5985352508185714 -0.4330127018909277
600 7.75246412147868 -2.821666182434923 -4.566987298106915
601 8.975804780527486 -3.266925768696287 -3.793362827351541
602 0.4211214273294969 -0.1532756645596346 -3.793362827355701
603 8.218470369703175 -2.991278585770706 -0.4306533549338685
604 0.3897362948186008 -0.141852410527168 -0.7529661584955213
605 8.971387697815183 -3.265318082066717 -0.7959128095284822
606 0.7067603779104404 -0.2572397403181328 -4.576613977473275
607 8.690165829945306 -3.162961692937339 -4.576613977470982
608 4.933386259113449 -1.795605752455185 -4.566987298107913
609 4.698463103916229 -1.710100716623497 -4.13397459621688
610 4.228616793524453 -1.539090644961092 -4.133974596218425
611 4.463539948719101 -1.624595680791843 -3.700961894326433
612 4.933386259111 -1.795605752454294 -3.70096189432493
613 4.698463103913797 -1.710100716622613 -3.267949192434376
614 5.16830941430601 -1.881110788285177 -3.267949192432742
615 4.228616793521875 -1.539090644960154 -3.267949192435964
616 4.463539948716483 -1.624595680790891 -2.834936490543893
617 3.993693638324634 -1.453585609128459 -2.834936490545533
618 4.228616793519192 -1.539090644959177 -2.401923788653488
619 3.75877048312739 -1.368080573296762 -2.401923788655211
620 4.698463103911052 -1.710100716621613 -2.401923788651801
621 3.523847327932866 -1.282575537466056 -2.834936490547153
622 3.288924172735654 -1.197070501634371 -2.401923788656849
623 3.054001017541139 -1.111565465803668 -2.834936490548794
624 2.819077862343941 -1.026060429971989 -2.40192378865847
625 2.584154707149422 -0.9405553941412844 -2.834936490550472
626 2.349231551952192 -0.8550503583095935 -2.401923788660104
627 2.114308396757656 -0.7695453224788826 -2.834936490552109
628 1.879385241560397 -0.684040286647181 -2.401923788661712
629 3.523847327930043 -1.282575537465029 -1.968911086764747
630 2.114308396754992 -0.7695453224779132 -1.968911086769726
631 4.463539948713767 -1.624595680789902 -1.968911086761225
632 4.933386259105946 -1.795605752452454 -1.968911086759507
633 2.349231551954851 -0.8550503583105611 -3.267949192442508
634 1.879385241562985 -0.6840402866481229 -3.267949192444148
635 1.653283040528732 -0.6017458155695817 -1.963491463216331
636 3.288924172738356 -1.197070501635355 -3.26794919243913
637 1.880855400585433 -0.6845753807719317 -1.534995114286868
638 2.349476578454188 -0.8551395406629263 -1.535747839779059
639 1.399092580959328 -0.5092280544518725 -1.523441881486996
640 4.698463103908479 -1.710100716620677 -1.53589838486874
641 5.168309414301021 -1.881110788283361 -1.535898384866921
642 5.40323256949863 -1.96661582411519 -1.968911086757814
643 5.638155724693968 -2.052120859946193 -1.552369723245661
644 5.873078879891796 -2.137625895778102 -1.971656309819894
645 6.10800203508716 -2.223130931609113 -1.545274721246201
646 6.342925190285102 -2.308635967441063 -1.97093134666296
647 6.108002035089481 -2.223130931609958 -2.402329016792056
648 6.577848345482966 -2.394141003272986 -2.402328036655722
649 6.812771500678511 -2.479646039104063 -1.969315171406558
650 7.047694655876386 -2.56515107493599 -2.402058510755991
651 7.282617811071981 -2.650656110767086 -1.985472226260798
652 6.342925190287477 -2.308635967441928 -2.834936490540533
653 7.506181327800078 -2.732026576323987 -2.411685831876012
654 7.280724537995966 -2.649967015722078 -2.836585951428094
655 7.738895664406698 -2.816727667935802 -2.843817807518544
656 7.753218451037545 -2.821940735941177 -2.057263673901368
657 7.514964011248964 -2.735223211676364 -3.269704322074733
658 7.984696374651774 -2.906191810026502 -3.269721933532348
659 7.055982867205946 -2.568167737155257 -1.579618209860229
660 1.444162748922328 -0.5256322540437826 -2.373988665777668
661 4.228616793516293 -1.539090644958122 -1.535898384870572
662 7.047694655878561 -2.565151074936781 -3.267949192431292
663 5.403232569503388 -1.966615824116922 -3.70096189432355
664 7.282188318573904 -2.650499788281945 -3.701254415929381
665 6.812699918598998 -2.479619985357814 -3.701010647923706
666 2.114308396760941 -0.7695453224800783 -3.700961894334151
667 2.584154707151892 -0.9405553941421837 -3.700961894332562
668 1.644462086369423 -0.5985352508177669 -3.700961894334972
669 1.409538931171057 -0.5130302149856623 -3.267949192445539
670 2.114308396752482 -0.7695453224769994 -1.102885682987479
671 4.463539948710809 -1.624595680788826 -1.102885682978064
672 5.411520780827553 -1.969632486334226 -1.146546712045528
673 5.638155724698456 -2.052120859947826 -3.267949192431252
674 5.87307887989635 -2.137625895779759 -3.700961894322107
675 5.403232569500781 -1.966615824115973 -2.83493649054063
676 2.349231551958018 -0.8550503583117138 -4.133974596222976
677 1.188244302947881 -0.4324855573094207 -3.692588482071937
678 8.20044708310852 -2.984718645926603 -2.872218949878354
679 0.9547014793870376 -0.3474829211067901 -3.266900717446386
680 8.457233587059491 -3.078181289926037 -3.267949192426887
681 8.208233421228087 -2.987552641236057 -3.692883938907968
682 2.584154707144182 -0.9405553941393773 -1.102885682985952
683 2.819118700092021 -1.026075293696724 -1.535873294026415
684 3.054001017535835 -1.111565465801738 -1.102885682984401
685 3.993693638318665 -1.453585609126286 -1.102885682979942
686 5.873078879901448 -2.137625895781615 -4.566987298106953
687 5.416769981344628 -1.971543039076136 -0.4083492358443682
688 6.342925190295471 -2.308635967444838 -4.566987298107327
689 6.108002035094943 -2.223130931611946 -4.13397459621426
690 0.4747230798683621 -0.1727850705912609 -3.264342162506273
691 7.751824111117423 -2.821433237713803 -0.4326194773999944
692 7.986640597920895 -2.90689944942523 -0.865566641877523
693 8.460013701470857 -3.079193168819628 -0.851510939639182
694 8.234252833675818 -2.997022932880127 -1.289413341582359
695 7.777537067041833 -2.830791988305287 -1.266878333099342
696 8.695916715319637 -3.165054844034272 -1.283568851480847
697 8.485685654715182 -3.088536995656036 -1.726683311472747
698 8.710755676105705 -3.170455784067844 -2.173821291572578
699 8.234620459340897 -2.997156737679568 -2.122912909551038
700 7.533092171551669 -2.741821322428555 -0.8533942175354167
701 7.061890019292371 -2.570317764683999 -0.840444944432254
702 3.75877048312427 -1.368080573295627 -1.535898384872322
703 4.463539948721796 -1.624595680792825 -0.433012701892068
704 6.344859106273456 -2.309339855296396 -0.4318244974897794
705 6.113052957535128 -2.224969317035761 -0.8510537448261337
706 6.580369798087518 -2.395058736968156 -0.8377048388556773
707 0.4054703050296665 -0.1475791219096363 -2.247366908852948
708 0.7921991429175164 -0.2883369076331732 -2.034335111753278
709 0.8811640195295435 -0.3207174746151165 -1.513865145952312
710 8.221978613152496 -2.992555481960819 -4.568591744667688
711 8.528183604959926 -3.104004984562449 -4.09166135035936
712 6.813904319688418 -2.480058351504481 -0.4296666603063368
713 3.523847327937928 -1.282575537467898 -0.433012701890973
714 7.282617811083374 -2.650656110771232 -4.566987298106799
715 7.517469384193443 -2.73613509285389 -4.134023349815003
716 1.64446208636076 -0.5985352508146138 -1.102885682988996
717 1.177977106855816 -0.4287486035425347 -1.105435705435844
718 3.993693638327319 -1.453585609129436 -3.70096189432801
719 3.758770483132662 -1.368080573298682 -4.133974596219218
720 3.523847327935726 -1.282575537467097 -3.700961894329144
721 2.114308396763213 -0.7695453224809052 -0.4330127018909218
722 3.75877048313013 -1.368080573297759 -3.267949192437488
723 3.054001017543698 -1.1115654658046 -3.700961894330617
724 1.193509220627448 -0.434401830630645 -0.3979612844832656
725 2.584202351189297 -0.9405727351536392 -1.968881814110039
726 3.054001017546356 -1.111565465805567 -0.4330127018909732
727 3.993693638321825 -1.453585609127436 -1.968911086762927
728 3.054015764503946 -1.111570833259176 -1.968902026181836
729 8.916931093973936 -3.245497499209276 -3.251667935056996
730 2.81907786234656 -1.026060429972942 -3.26794919244068
731 6.57855312535579 -2.394397522168404 -1.557299144101977
732 4.934091038978462 -1.79586227134776 -1.123277983297557
733 1.174947594700361 -0.4276459512936012 -4.568591744672003
734 6.812455955167732 -2.479531189930583 -2.835301229040738
735 6.57778382421813 -2.394117519453108 -3.268018107781044
736 0.4064501015951545 -0.1479357386951103 -1.252805217406323
737 0.7697786828358507 -0.2801765275248933 -2.504716516564818
738 4.933386259108502 -1.795605752453385 -2.834936490542252
739 3.288933436852226 -1.197073873497051 -1.535892692968643
740 1.650232722657983 -0.6006355906595788 -2.830280636739399
741 3.52384732792725 -1.282575537464012 -1.102885682982139
742 3.993693638329082 -1.453585609130078 -4.566987298109328
743 1.15378197303733 -0.4199422950185182 -2.774470694866035
744 5.168309414303545 -1.88111078828428 -2.401923788650062
745 5.168309414308645 -1.881110788286136 -4.133974596215694
746 3.523847327937558 -1.282575537467764 -4.566987298109866
747 5.638155724701972 -2.052120859949106 -4.133974596214939
748 5.638155724696132 -2.05212085994698 -2.402448863849928
749 5.873078879892989 -2.137625895778536 -2.834992995844641
750 3.288924172740466 -1.197070501636123 -4.133974596220255
751 6.108002035090106 -2.223130931610186 -3.267949192430486
752 2.819077862349086 -1.026060429973862 -4.133974596221507
753 7.996798877747135 -2.910596760913327 -4.125851596029253
754 2.584154707154258 -0.9405553941430445 -4.56698729811133
755 7.750725064607217 -2.821033217498014 -3.69890659271478
756 2.114308396763275 -0.769545322480928 -4.566987298112369
757 7.047599213104733 -2.565116336608032 -4.13403960101631
758 6.577841099165738 -2.394138365829207 -4.133979531589713
759 6.342908124851244 -2.308629756131105 -3.700976490074779
760 1.879385241567478 -0.6840402866497584 -4.133974596223405
761 1.411865655456856 -0.5138770733690372 -4.132846435272898
762 0.869010922980377 -0.3162941092170565 -4.091457976394513
763 8.677742782930888 -3.158440073605201 -0.4106379043111132
764 0.7325214553965199 -0.2666160057256909 -0.469271719885603
765 0.391128052314053 -0.1423589688288294 -4.25435281555021
766 9.005830098410883 -3.277854090680223 -4.254377026735681
767 0.7609014545489549 -0.2769454806656773 -0.9999999999984349
768 1.227541500964707 -0.44678856767761 -1.936393345443058
769 7.985019732743874 -2.906309502747035 -2.470138509558892
770 5.644569064943118 -2.054455124899105 -0.8002493456470283
771 7.29313576533935 -2.654484333045781 -1.229337335733774
772 8.016628004346854 -2.917813972767121 -1.68477845981753
773 8.459083003716108 -3.078854422539801 -2.526163129589551
774 1.409538931175842 -0.5130302149874036 -0.7679491924356433
775 1.879385241567427 -0.6840402866497396 -0.7679491924349382
776 2.349231551959003 -0.8550503583120723 -0.7679491924342228
777 2.819077862350535 -1.026060429974389 -0.7679491924335087
778 3.288924172742142 -1.197070501636733 -0.7679491924323162
779 9.088120875360445 -3.307805484044504 -1.264976132298874
780 3.758770483128191 -1.368080573297054 -0.767949192436024
781 4.228616793517547 -1.539090644958579 -0.7679491924371457
782 4.698463103905806 -1.710100716619704 -0.7679491924394279
783 5.173133371518926 -1.882866565122052 -0.7798975285276588
784 6.343910565870265 -2.308994614823636 -1.199561500357846
785 6.818973690191872 -2.481903451474205 -1.207327662223626
786 5.87397858529082 -2.137953361762955 -1.196714644630916
787 7.526335510129312 -2.739362098787802 -1.634129956550483
788 8.613901762640293 -3.135203842494239 -3.6347947003738
789 0.781560242502631 -0.2844646645568326 -3.621730433154962
790 8.60582972540664 -3.132265861211301 -2.908962000940868
791 9.09032206135792 -3.308606650227668 -2.24999999999586
792 0.762370398146297 -0.2774801324109257 -2.905208718852498
793 0.343951370955802 -0.1251880610629648 -0.3660254037839581
794 9.052974836901612 -3.295013372193114 -4.633974596214597
795 9.052974836903065 -3.295013372193642 -0.3660254037835448
796 0.3439513709554226 -0.1251880610628267 -4.633974596216134
797 1.054889633720916 -0.3839484271103902 -0.7481235804477582
798 1.079834534994178 -0.3930276286705668 -2.309772166696677
$EndNodes
$Elements
1622
1 15 2 0 1 1
2 15 2 0 2 2
3 15 2 0 3 3
4 15 2 0 4 4
5 15 2 0 5 5
6 15 2 0 6 6
7 15 2 0 7 7
8 15 2 0 8 8
9 1 2 0 1 1 9
10 1 2 0 1 9 10
11 1 2 0 1 10 11
12 1 2 0 1 11 12
13 1 2 0 1 12 13
14 1 2 0 1 13 14
15 1 2 0 1 14 15
16 1 2 0 1 15 16
17 1 2 0 1 16 17
18 1 2 0 1 17 18
19 1 2 0 1 18 19
20 1 2 0 1 19 20
21 1 2 0 1 20 21
22 1 2 0 1 21 22
23 1 2 0 1 22 23
24 1 2 0 1 23 24
25 1 2 0 1 24 25
26 1 2 0 1 25 26
27 1 2 0 1 26 27
28 1 2 0 1 27 2
29 1 2 0 2 2 28
30 1 2 0 2 28 29
31 1 2 0 2 29 30
32 1 2 0 2 30 31
33 1 2 0 2 31 32
34 1 2 0 2 32 33
35 1 2 0 2 33 34
36 1 2 0 2 34 35
37 1 2 0 2 35 36
38 1 2 0 2 36 37
39 1 2 0 2 37 38
40 1 2 0 2 38 39
41 1 2 0 2 39 40
42 1 2 0 2 40 41
43 1 2 0 2 41 42
44 1 2 0 2 42 43
45 1 2 0 2 43 44
46 1 2 0 2 44 45
47 1 2 0 2 45 46
48 1 2 0 2 46 3
49 1 2 0 3 2 47
50 1 2 0 3 47 48
51 1 2 0 3 48 49
52 1 2 0 3 49 50
53 1 2 0 3 50 51
54 1 2 0 3 51 52
55 1 2 0 3 52 53
56 1 2 0 3 53 54
57 1 2 0 3 54 55
58 1 2 0 3 55 56
59 1 2 0 3 56 57
60 1 2 0 3 57 58
61 1 2 0 3 58 59
62 1 2 0 3 59 60
63 1 2 0 3 60 61
64 1 2 0 3 61 62
65 1 2 0 3 62 63
66 1 2 0 3 63 64
67 1 2 0 3 64 65
68 1 2 0 3 65 4
69 1 2 0 4 5 66
70 1 2 0 4 66 67
71 1 2 0 4 67 68
72 1 2 0 4 68 69
73 1 2 0 4 69 70
74 1 2 0 4 70 71
75 1 2 0 4 71 72
76 1 2 0 4 72 73
77 1 2 0 4 73 74
78 1 2 0 4 74 75
79 1 2 0 4 75 76
80 1 2 0 4 76 77
81 1 2 0 4 77 78
82 1 2 0 4 78 79
83 1 2 0 4 79 80
84 1 2 0 4 80 81
85 1 2 0 4 81 82
86 1 2 0 4 82 83
87 1 2 0 4 83 84
88 1 2 0 4 84 6
89 1 2 0 5 6 85
90 1 2 0 5 85 86
91 1 2 0 5 86 87
92 1 2 0 5 87 88
93 1 2 0 5 88 89
94 1 2 0 5 89 90
95 1 2 0 5 90 91
96 1 2 0 5 91 92
97 1 2 0 5 92 93
98 1 2 0 5 93 94
99 1 2 0 5 94 95
100 1 2 0 5 95 96
101 1 2 0 5 96 97
102 1 2 0 5 97 98
103 1 2 0 5 98 99
104 1 2 0 5 99 100
105 1 2 0 5 100 101
106 1 2 0 5 101 102
107 1 2 0 5 102 103
108 1 2 0 5 103 7
109 1 2 0 6 6 104
110 1 2 0 6 104 105
111 1 2 0 6 105 106
112 1 2 0 6 106 107
113 1 2 0 6 107 108
114 1 2 0 6 108 109
115 1 2 0 6 109 110
116 1 2 0 6 110 111
117 1 2 0 6 111 112
118 1 2 0 6 112 113
119 1 2 0 6 113 114
120 1 2 0 6 114 115
121 1 2 0 6 115 116
122 1 2 0 6 116 117
123 1 2 0 6 117 118
124 1 2 0 6 118 119
125 1 2 0 6 119 120
126 1 2 0 6 120 121
127 1 2 0 6 121 122
128 1 2 0 6 122 8
129 1 2 0 7 1 123
130 1 2 0 7 123 124
131 1 2 0 7 124 125
132 1 2 0 7 125 126
133 1 2 0 7 126 127
134 1 2 0 7 127 128
135 1 2 0 7 128 129
136 1 2 0 7 129 130
137 1 2 0 7 130 131
138 1 2 0 7 131 5
139 1 2 0 8 3 132
140 1 2 0 8 132 133
141 1 2 0 8 133 134
142 1 2 0 8 134 135
143 1 2 0 8 135 136
144 1 2 0 8 136 137
145 1 2 0 8 137 138
146 1 2 0 8 138 139
147 1 2 0 8 139 140
148 1 2 0 8 140 7
149 1 2 0 9 4 141
150 1 2 0 9 141 142
151 1 2 0 9 142 143
152 1 2 0 9 143 144
153 1 2 0 9 144 145
154 1 2 0 9 145 146
155 1 2 0 9 146 147
156 1 2 0 9 147 148
157 1 2 0 9 148 149
158 1 2 0 9 149 8
159 1 2 0 10 2 150
160 1 2 0 10 150 151
161 1 2 0 10 151 152
162 1 2 0 10 152 153
163 1 2 0 10 153 154
164 1 2 0 10 154 155
165 1 2 0 10 155 156
166 1 2 0 10 156 157
167 1 2 0 10 157 158
168 1 2 0 10 158 6
169 2 2 0 1 166 314 318
170 2 2 0 1 175 250 263
171 2 2 0 1 240 234 265
172 2 2 0 1 280 167 281
173 2 2 0 1 314 166 349
174 2 2 0 1 234 249 265
175 2 2 0 1 250 175 341
176 2 2 0 1 167 280 365
177 2 2 0 1 150 151 255
178 2 2 0 1 124 123 332
179 2 2 0 1 170 312 313
180 2 2 0 1 254 169 279
181 2 2 0 1 150 255 367
182 2 2 0 1 332 123 366
183 2 2 0 1 279 169 280
184 2 2 0 1 240 265 343
185 2 2 0 1 263 250 344
186 2 2 0 1 170 313 314
187 2 2 0 1 251 250 341
188 2 2 0 1 275 348 355
189 2 2 0 1 248 347 352
190 2 2 0 1 346 76 362
191 2 2 0 1 345 70 361
192 2 2 0 1 166 318 343
193 2 2 0 1 235 279 280
194 2 2 0 1 281 167 344
195 2 2 0 1 339 179 341
196 2 2 0 1 180 340 342
197 2 2 0 1 235 280 281
198 2 2 0 1 265 249 342
199 2 2 0 1 312 170 350
200 2 2 0 1 169 254 354
201 2 2 0 1 235 281 319
202 2 2 0 1 281 239 319
203 2 2 0 1 276 346 362
204 2 2 0 1 304 345 361
205 2 2 0 1 348 164 355
206 2 2 0 1 347 168 352
207 2 2 0 1 253 178 255
208 2 2 0 1 178 253 256
209 2 2 0 1 165 258 260
210 2 2 0 1 253 252 256
211 2 2 0 1 165 260 261
212 2 2 0 1 252 171 256
213 2 2 0 1 337 297 338
214 2 2 0 1 21 22 261
215 2 2 0 1 258 165 299
216 2 2 0 1 171 252 257
217 2 2 0 1 241 243 257
218 2 2 0 1 22 165 261
219 2 2 0 1 293 328 329
220 2 2 0 1 252 241 257
221 2 2 0 1 257 258 299
222 2 2 0 1 261 262 335
223 2 2 0 1 257 243 258
224 2 2 0 1 219 295 296
225 2 2 0 1 289 294 322
226 2 2 0 1 219 294 295
227 2 2 0 1 21 261 335
228 2 2 0 1 328 160 329
229 2 2 0 1 261 260 262
230 2 2 0 1 291 161 292
231 2 2 0 1 262 337 338
232 2 2 0 1 290 285 323
233 2 2 0 1 290 161 291
234 2 2 0 1 294 219 322
235 2 2 0 1 295 293 329
236 2 2 0 1 202 200 296
237 2 2 0 1 200 219 296
238 2 2 0 1 161 290 323
239 2 2 0 1 17 18 292
240 2 2 0 1 171 257 299
241 2 2 0 1 161 17 292
242 2 2 0 1 220 287 288
243 2 2 0 1 220 286 287
244 2 2 0 1 196 194 288
245 2 2 0 1 289 291 294
246 2 2 0 1 270 214 315
247 2 2 0 1 268 270 315
248 2 2 0 1 214 270 272
249 2 2 0 1 215 268 315
250 2 2 0 1 215 266 268
251 2 2 0 1 204 202 330
252 2 2 0 1 214 272 277
253 2 2 0 1 202 296 330
254 2 2 0 1 296 295 297
255 2 2 0 1 197 199 321
256 2 2 0 1 258 243 259
257 2 2 0 1 282 159 283
258 2 2 0 1 176 264 265
259 2 2 0 1 14 15 284
260 2 2 0 1 254 253 255
261 2 2 0 1 283 159 284
262 2 2 0 1 194 220 288
263 2 2 0 1 26 178 256
264 2 2 0 1 232 266 324
265 2 2 0 1 266 215 324
266 2 2 0 1 297 329 338
267 2 2 0 1 23 24 299
268 2 2 0 1 286 220 305
269 2 2 0 1 159 282 300
270 2 2 0 1 159 14 284
271 2 2 0 1 176 129 264
272 2 2 0 1 167 155 263
273 2 2 0 1 199 277 321
274 2 2 0 1 282 183 300
275 2 2 0 1 11 174 181
276 2 2 0 1 231 286 305
277 2 2 0 1 199 201 277
278 2 2 0 1 291 292 293
279 2 2 0 1 288 289 322
280 2 2 0 1 201 214 277
281 2 2 0 1 287 285 290
282 2 2 0 1 9 10 177
283 2 2 0 1 26 27 178
284 2 2 0 1 262 260 336
285 2 2 0 1 24 171 299
286 2 2 0 1 285 284 323
287 2 2 0 1 213 278 325
288 2 2 0 1 333 208 334
289 2 2 0 1 177 10 181
290 2 2 0 1 318 307 331
291 2 2 0 1 272 274 277
292 2 2 0 1 165 23 299
293 2 2 0 1 196 288 322
294 2 2 0 1 156 175 263
295 2 2 0 1 213 197 321
296 2 2 0 1 224 210 225
297 2 2 0 1 154 155 167
298 2 2 0 1 192 189 305
299 2 2 0 1 171 25 256
300 2 2 0 1 288 287 289
301 2 2 0 1 278 213 321
302 2 2 0 1 302 213 325
303 2 2 0 1 313 307 314
304 2 2 0 1 128 127 166
305 2 2 0 1 242 253 254
306 2 2 0 1 156 157 175
307 2 2 0 1 181 174 182
308 2 2 0 1 128 166 264
309 2 2 0 1 130 129 176
310 2 2 0 1 231 283 286
311 2 2 0 1 25 26 256
312 2 2 0 1 224 225 229
313 2 2 0 1 293 292 328
314 2 2 0 1 292 18 328
315 2 2 0 1 284 15 323
316 2 2 0 1 217 228 232
317 2 2 0 1 177 181 311
318 2 2 0 1 183 174 300
319 2 2 0 1 229 241 242
320 2 2 0 1 242 252 253
321 2 2 0 1 220 192 305
322 2 2 0 1 262 336 337
323 2 2 0 1 232 238 247
324 2 2 0 1 230 251 298
325 2 2 0 1 283 284 285
326 2 2 0 1 155 156 263
327 2 2 0 1 306 307 313
328 2 2 0 1 189 187 305
329 2 2 0 1 193 195 302
330 2 2 0 1 311 236 312
331 2 2 0 1 232 247 266
332 2 2 0 1 242 254 279
333 2 2 0 1 191 193 301
334 2 2 0 1 195 213 302
335 2 2 0 1 258 259 260
336 2 2 0 1 129 128 264
337 2 2 0 1 185 183 282
338 2 2 0 1 216 210 224
339 2 2 0 1 232 228 238
340 2 2 0 1 301 193 302
341 2 2 0 1 291 293 294
342 2 2 0 1 217 232 324
343 2 2 0 1 187 185 231
344 2 2 0 1 266 247 267
345 2 2 0 1 231 185 282
346 2 2 0 1 240 318 331
347 2 2 0 1 231 282 283
348 2 2 0 1 10 11 181
349 2 2 0 1 229 225 241
350 2 2 0 1 289 287 290
351 2 2 0 1 303 237 304
352 2 2 0 1 188 187 189
353 2 2 0 1 11 12 174
354 2 2 0 1 13 159 300
355 2 2 0 1 24 25 171
356 2 2 0 1 182 184 236
357 2 2 0 1 277 274 321
358 2 2 0 1 211 191 301
359 2 2 0 1 222 211 227
360 2 2 0 1 174 12 300
361 2 2 0 1 237 227 244
362 2 2 0 1 191 189 192
363 2 2 0 1 190 189 191
364 2 2 0 1 266 267 268
365 2 2 0 1 209 208 210
366 2 2 0 1 191 192 193
367 2 2 0 1 187 231 305
368 2 2 0 1 222 237 303
369 2 2 0 1 222 227 237
370 2 2 0 1 193 192 194
371 2 2 0 1 242 241 252
372 2 2 0 1 193 194 195
373 2 2 0 1 188 189 190
374 2 2 0 1 244 227 245
375 2 2 0 1 289 290 291
376 2 2 0 1 283 285 286
377 2 2 0 1 268 267 269
378 2 2 0 1 244 245 246
379 2 2 0 1 229 242 279
380 2 2 0 1 190 191 211
381 2 2 0 1 294 293 295
382 2 2 0 1 186 187 188
383 2 2 0 1 195 194 196
384 2 2 0 1 227 211 301
385 2 2 0 1 12 13 300
386 2 2 0 1 194 192 220
387 2 2 0 1 268 269 270
388 2 2 0 1 195 196 197
389 2 2 0 1 186 185 187
390 2 2 0 1 199 198 200
391 2 2 0 1 195 197 213
392 2 2 0 1 197 196 198
393 2 2 0 1 197 198 199
394 2 2 0 1 199 200 201
395 2 2 0 1 270 269 271
396 2 2 0 1 218 204 330
397 2 2 0 1 236 184 306
398 2 2 0 1 207 206 208
399 2 2 0 1 286 285 287
400 2 2 0 1 206 204 218
401 2 2 0 1 205 204 206
402 2 2 0 1 201 200 202
403 2 2 0 1 200 198 219
404 2 2 0 1 203 202 204
405 2 2 0 1 245 301 302
406 2 2 0 1 201 202 203
407 2 2 0 1 274 278 321
408 2 2 0 1 19 20 160
409 2 2 0 1 201 203 214
410 2 2 0 1 270 271 272
411 2 2 0 1 162 79 310
412 2 2 0 1 273 271 276
413 2 2 0 1 203 204 205
414 2 2 0 1 182 236 311
415 2 2 0 1 22 23 165
416 2 2 0 1 272 271 273
417 2 2 0 1 78 77 173
418 2 2 0 1 80 79 162
419 2 2 0 1 74 73 309
420 2 2 0 1 79 78 310
421 2 2 0 1 230 250 251
422 2 2 0 1 274 273 275
423 2 2 0 1 78 173 310
424 2 2 0 1 13 14 159
425 2 2 0 1 16 17 161
426 2 2 0 1 72 71 163
427 2 2 0 1 75 74 164
428 2 2 0 1 164 74 309
429 2 2 0 1 272 273 274
430 2 2 0 1 203 205 315
431 2 2 0 1 205 215 315
432 2 2 0 1 214 203 315
433 2 2 0 1 217 221 228
434 2 2 0 1 73 72 308
435 2 2 0 1 325 278 327
436 2 2 0 1 72 163 308
437 2 2 0 1 274 275 278
438 2 2 0 1 246 325 327
439 2 2 0 1 205 207 215
440 2 2 0 1 205 206 207
441 2 2 0 1 245 227 301
442 2 2 0 1 212 211 222
443 2 2 0 1 73 308 309
444 2 2 0 1 248 226 303
445 2 2 0 1 234 226 248
446 2 2 0 1 81 80 316
447 2 2 0 1 80 162 316
448 2 2 0 1 190 211 212
449 2 2 0 1 198 196 322
450 2 2 0 1 226 222 303
451 2 2 0 1 245 302 325
452 2 2 0 1 335 262 338
453 2 2 0 1 15 16 323
454 2 2 0 1 238 228 298
455 2 2 0 1 234 248 249
456 2 2 0 1 236 306 313
457 2 2 0 1 212 222 226
458 2 2 0 1 241 225 243
459 2 2 0 1 181 182 311
460 2 2 0 1 82 81 172
461 2 2 0 1 228 230 298
462 2 2 0 1 215 207 324
463 2 2 0 1 219 198 322
464 2 2 0 1 314 307 318
465 2 2 0 1 184 183 185
466 2 2 0 1 16 161 323
467 2 2 0 1 186 223 306
468 2 2 0 1 246 245 325
469 2 2 0 1 188 190 326
470 2 2 0 1 228 221 230
471 2 2 0 1 69 68 168
472 2 2 0 1 184 185 186
473 2 2 0 1 224 229 235
474 2 2 0 1 207 208 209
475 2 2 0 1 18 19 328
476 2 2 0 1 172 81 316
477 2 2 0 1 312 236 313
478 2 2 0 1 311 312 332
479 2 2 0 1 306 223 307
480 2 2 0 1 186 188 223
481 2 2 0 1 278 275 327
482 2 2 0 1 182 174 183
483 2 2 0 1 190 212 326
484 2 2 0 1 83 82 317
485 2 2 0 1 297 295 329
486 2 2 0 1 184 186 306
487 2 2 0 1 212 226 233
488 2 2 0 1 209 210 216
489 2 2 0 1 217 216 221
490 2 2 0 1 239 221 319
491 2 2 0 1 68 67 320
492 2 2 0 1 235 229 279
493 2 2 0 1 216 224 319
494 2 2 0 1 182 183 184
495 2 2 0 1 177 311 332
496 2 2 0 1 223 188 326
497 2 2 0 1 209 216 217
498 2 2 0 1 207 209 324
499 2 2 0 1 84 83 179
500 2 2 0 1 233 226 234
501 2 2 0 1 67 66 180
502 2 2 0 1 209 217 324
503 2 2 0 1 230 239 250
504 2 2 0 1 230 221 239
505 2 2 0 1 82 172 317
506 2 2 0 1 19 160 328
507 2 2 0 1 210 208 333
508 2 2 0 1 212 233 326
509 2 2 0 1 233 234 240
510 2 2 0 1 221 216 319
511 2 2 0 1 259 333 334
512 2 2 0 1 296 297 330
513 2 2 0 1 168 68 320
514 2 2 0 1 224 235 319
515 2 2 0 1 179 83 317
516 2 2 0 1 307 223 331
517 2 2 0 1 67 180 320
518 2 2 0 1 206 218 334
519 2 2 0 1 259 243 333
520 2 2 0 1 20 21 335
521 2 2 0 1 233 240 331
522 2 2 0 1 243 225 333
523 2 2 0 1 223 326 331
524 2 2 0 1 326 233 331
525 2 2 0 1 225 210 333
526 2 2 0 1 208 206 334
527 2 2 0 1 160 20 335
528 2 2 0 1 152 153 169
529 2 2 0 1 126 125 170
530 2 2 0 1 260 259 336
531 2 2 0 1 330 297 337
532 2 2 0 1 259 334 336
533 2 2 0 1 336 218 337
534 2 2 0 1 334 218 336
535 2 2 0 1 218 330 337
536 2 2 0 1 329 160 338
537 2 2 0 1 160 335 338
538 2 2 0 1 180 342 370
539 2 2 0 1 341 179 371
540 2 2 0 1 131 130 340
541 2 2 0 1 157 158 339
542 2 2 0 1 170 314 349
543 2 2 0 1 176 265 342
544 2 2 0 1 280 169 365
545 2 2 0 1 265 264 343
546 2 2 0 1 250 239 344
547 2 2 0 1 175 157 339
548 2 2 0 1 130 176 340
549 2 2 0 1 71 70 345
550 2 2 0 1 77 76 346
551 2 2 0 1 275 273 348
552 2 2 0 1 248 303 347
553 2 2 0 1 166 127 349
554 2 2 0 1 126 170 349
555 2 2 0 1 170 125 350
556 2 2 0 1 152 169 354
557 2 2 0 1 69 168 361
558 2 2 0 1 304 237 363
559 2 2 0 1 75 164 362
560 2 2 0 1 276 271 364
561 2 2 0 1 154 167 365
562 2 2 0 1 169 153 365
563 2 2 0 1 255 178 367
564 2 2 0 1 123 1 366
565 2 2 0 1 2 150 367
566 2 2 0 1 27 2 367
567 2 2 0 1 1 9 366
568 2 2 0 1 177 332 366
569 2 2 0 1 158 6 368
570 2 2 0 1 5 131 369
571 2 2 0 1 6 84 368
572 2 2 0 1 66 5 369
573 2 2 0 1 239 281 344
574 2 2 0 1 167 263 344
575 2 2 0 1 264 166 343
576 2 2 0 1 318 240 343
577 2 2 0 1 124 332 350
578 2 2 0 1 255 151 354
579 2 2 0 1 175 339 341
580 2 2 0 1 340 176 342
581 2 2 0 1 320 180 370
582 2 2 0 1 179 317 371
583 2 2 0 1 345 304 363
584 2 2 0 1 346 276 364
585 2 2 0 1 168 347 361
586 2 2 0 1 164 348 362
587 2 2 0 1 163 71 345
588 2 2 0 1 173 77 346
589 2 2 0 1 303 304 347
590 2 2 0 1 273 276 348
591 2 2 0 1 127 126 349
592 2 2 0 1 351 163 363
593 2 2 0 1 356 173 364
594 2 2 0 1 151 152 354
595 2 2 0 1 125 124 350
596 2 2 0 1 316 358 359
597 2 2 0 1 249 248 352
598 2 2 0 1 358 238 359
599 2 2 0 1 244 246 351
600 2 2 0 1 351 246 353
601 2 2 0 1 332 312 350
602 2 2 0 1 246 327 353
603 2 2 0 1 353 327 355
604 2 2 0 1 327 275 355
605 2 2 0 1 269 267 356
606 2 2 0 1 254 255 354
607 2 2 0 1 356 267 357
608 2 2 0 1 267 247 357
609 2 2 0 1 308 163 351
610 2 2 0 1 316 162 358
611 2 2 0 1 308 351 353
612 2 2 0 1 309 308 353
613 2 2 0 1 168 320 352
614 2 2 0 1 309 353 355
615 2 2 0 1 164 309 355
616 2 2 0 1 238 298 359
617 2 2 0 1 298 251 360
618 2 2 0 1 310 173 356
619 2 2 0 1 359 298 360
620 2 2 0 1 310 356 357
621 2 2 0 1 162 310 357
622 2 2 0 1 247 238 358
623 2 2 0 1 172 316 359
624 2 2 0 1 172 359 360
625 2 2 0 1 317 172 360
626 2 2 0 1 162 357 358
627 2 2 0 1 357 247 358
628 2 2 0 1 244 351 363
629 2 2 0 1 269 356 364
630 2 2 0 1 70 69 361
631 2 2 0 1 76 75 362
632 2 2 0 1 237 244 363
633 2 2 0 1 271 269 364
634 2 2 0 1 153 154 365
635 2 2 0 1 131 340 369
636 2 2 0 1 339 158 368
637 2 2 0 1 178 27 367
638 2 2 0 1 9 177 366
639 2 2 0 1 84 179 368
640 2 2 0 1 180 66 369
641 2 2 0 1 179 339 368
642 2 2 0 1 340 180 369
643 2 2 0 1 163 345 363
644 2 2 0 1 173 346 364
645 2 2 0 1 347 304 361
646 2 2 0 1 348 276 362
647 2 2 0 1 251 341 371
648 2 2 0 1 342 249 370
649 2 2 0 1 249 352 370
650 2 2 0 1 352 320 370
651 2 2 0 1 317 360 371
652 2 2 0 1 360 251 371
653 2 2 0 2 497 460 529
654 2 2 0 2 501 388 527
655 2 2 0 2 543 389 553
656 2 2 0 2 389 543 575
657 2 2 0 2 527 388 576
658 2 2 0 2 473 382 530
659 2 2 0 2 486 393 489
660 2 2 0 2 491 380 560
661 2 2 0 2 557 441 558
662 2 2 0 2 488 557 558
663 2 2 0 2 460 497 555
664 2 2 0 2 473 530 554
665 2 2 0 2 468 497 529
666 2 2 0 2 380 491 578
667 2 2 0 2 489 393 569
668 2 2 0 2 489 383 490
669 2 2 0 2 490 383 491
670 2 2 0 2 382 473 555
671 2 2 0 2 394 543 553
672 2 2 0 2 518 519 575
673 2 2 0 2 483 534 576
674 2 2 0 2 467 556 560
675 2 2 0 2 393 486 550
676 2 2 0 2 501 527 552
677 2 2 0 2 556 492 560
678 2 2 0 2 392 551 554
679 2 2 0 2 560 380 577
680 2 2 0 2 474 473 554
681 2 2 0 2 448 559 574
682 2 2 0 2 519 518 577
683 2 2 0 2 492 441 557
684 2 2 0 2 490 491 492
685 2 2 0 2 534 483 579
686 2 2 0 2 519 389 575
687 2 2 0 2 388 483 576
688 2 2 0 2 441 492 556
689 2 2 0 2 554 551 584
690 2 2 0 2 383 489 569
691 2 2 0 2 559 494 574
692 2 2 0 2 453 517 538
693 2 2 0 2 90 89 477
694 2 2 0 2 39 374 481
695 2 2 0 2 478 517 539
696 2 2 0 2 477 478 539
697 2 2 0 2 507 375 515
698 2 2 0 2 381 475 476
699 2 2 0 2 397 507 515
700 2 2 0 2 517 478 538
701 2 2 0 2 475 525 526
702 2 2 0 2 89 381 477
703 2 2 0 2 475 381 525
704 2 2 0 2 453 515 517
705 2 2 0 2 95 377 535
706 2 2 0 2 525 391 526
707 2 2 0 2 377 457 535
708 2 2 0 2 95 94 377
709 2 2 0 2 543 500 549
710 2 2 0 2 38 39 481
711 2 2 0 2 479 456 510
712 2 2 0 2 515 375 517
713 2 2 0 2 466 526 527
714 2 2 0 2 381 476 477
715 2 2 0 2 378 496 497
716 2 2 0 2 94 93 395
717 2 2 0 2 397 395 507
718 2 2 0 2 97 384 482
719 2 2 0 2 377 94 395
720 2 2 0 2 498 416 505
721 2 2 0 2 155 378 483
722 2 2 0 2 485 390 486
723 2 2 0 2 154 153 496
724 2 2 0 2 484 485 493
725 2 2 0 2 485 486 487
726 2 2 0 2 157 388 501
727 2 2 0 2 42 379 502
728 2 2 0 2 379 43 484
729 2 2 0 2 487 486 489
730 2 2 0 2 98 97 482
731 2 2 0 2 379 484 493
732 2 2 0 2 499 498 505
733 2 2 0 2 485 488 493
734 2 2 0 2 470 499 505
735 2 2 0 2 379 494 502
736 2 2 0 2 43 44 484
737 2 2 0 2 40 41 495
738 2 2 0 2 476 455 537
739 2 2 0 2 376 98 482
740 2 2 0 2 97 96 384
741 2 2 0 2 484 390 485
742 2 2 0 2 394 102 500
743 2 2 0 2 90 477 539
744 2 2 0 2 478 476 537
745 2 2 0 2 450 414 506
746 2 2 0 2 416 498 506
747 2 2 0 2 388 156 483
748 2 2 0 2 456 427 510
749 2 2 0 2 427 429 510
750 2 2 0 2 158 157 501
751 2 2 0 2 442 479 510
752 2 2 0 2 396 395 397
753 2 2 0 2 41 42 502
754 2 2 0 2 153 382 496
755 2 2 0 2 44 390 484
756 2 2 0 2 454 421 455
757 2 2 0 2 487 489 490
758 2 2 0 2 155 154 378
759 2 2 0 2 44 45 390
760 2 2 0 2 157 156 388
761 2 2 0 2 101 100 386
762 2 2 0 2 442 449 479
763 2 2 0 2 498 450 506
764 2 2 0 2 423 414 450
765 2 2 0 2 401 453 514
766 2 2 0 2 495 41 502
767 2 2 0 2 456 479 540
768 2 2 0 2 455 421 531
769 2 2 0 2 378 154 496
770 2 2 0 2 477 476 478
771 2 2 0 2 438 436 441
772 2 2 0 2 426 463 533
773 2 2 0 2 396 397 398
774 2 2 0 2 442 444 449
775 2 2 0 2 398 397 399
776 2 2 0 2 454 455 475
777 2 2 0 2 447 474 504
778 2 2 0 2 395 93 507
779 2 2 0 2 96 95 535
780 2 2 0 2 475 455 476
781 2 2 0 2 417 451 511
782 2 2 0 2 36 372 508
783 2 2 0 2 151 150 392
784 2 2 0 2 414 405 506
785 2 2 0 2 432 437 442
786 2 2 0 2 461 450 469
787 2 2 0 2 379 493 494
788 2 2 0 2 423 450 461
789 2 2 0 2 156 155 483
790 2 2 0 2 99 376 509
791 2 2 0 2 453 399 515
792 2 2 0 2 35 36 508
793 2 2 0 2 399 397 515
794 2 2 0 2 505 416 511
795 2 2 0 2 100 99 509
796 2 2 0 2 410 417 511
797 2 2 0 2 386 100 509
798 2 2 0 2 401 399 453
799 2 2 0 2 400 399 401
800 2 2 0 2 447 473 474
801 2 2 0 2 435 434 436
802 2 2 0 2 400 401 403
803 2 2 0 2 451 505 511
804 2 2 0 2 103 102 394
805 2 2 0 2 398 399 400
806 2 2 0 2 451 446 462
807 2 2 0 2 102 101 500
808 2 2 0 2 410 413 417
809 2 2 0 2 417 420 446
810 2 2 0 2 417 446 451
811 2 2 0 2 442 437 444
812 2 2 0 2 451 462 470
813 2 2 0 2 403 404 405
814 2 2 0 2 34 35 387
815 2 2 0 2 463 424 503
816 2 2 0 2 396 398 532
817 2 2 0 2 403 401 404
818 2 2 0 2 406 407 408
819 2 2 0 2 405 404 406
820 2 2 0 2 469 498 499
821 2 2 0 2 445 467 518
822 2 2 0 2 406 408 416
823 2 2 0 2 449 444 523
824 2 2 0 2 34 387 512
825 2 2 0 2 101 386 500
826 2 2 0 2 446 447 504
827 2 2 0 2 422 421 454
828 2 2 0 2 373 33 512
829 2 2 0 2 405 406 506
830 2 2 0 2 469 450 498
831 2 2 0 2 432 442 510
832 2 2 0 2 387 35 508
833 2 2 0 2 462 446 504
834 2 2 0 2 33 34 512
835 2 2 0 2 435 436 438
836 2 2 0 2 406 404 407
837 2 2 0 2 446 420 447
838 2 2 0 2 429 432 510
839 2 2 0 2 92 91 375
840 2 2 0 2 406 416 506
841 2 2 0 2 416 408 511
842 2 2 0 2 374 40 495
843 2 2 0 2 417 413 420
844 2 2 0 2 29 30 516
845 2 2 0 2 31 32 513
846 2 2 0 2 42 43 379
847 2 2 0 2 408 407 409
848 2 2 0 2 408 410 511
849 2 2 0 2 445 440 467
850 2 2 0 2 465 445 518
851 2 2 0 2 404 401 514
852 2 2 0 2 411 405 414
853 2 2 0 2 432 433 437
854 2 2 0 2 451 470 505
855 2 2 0 2 415 414 423
856 2 2 0 2 136 137 380
857 2 2 0 2 32 373 513
858 2 2 0 2 36 37 372
859 2 2 0 2 99 98 376
860 2 2 0 2 39 40 374
861 2 2 0 2 32 33 373
862 2 2 0 2 409 407 418
863 2 2 0 2 429 431 432
864 2 2 0 2 408 409 410
865 2 2 0 2 432 431 433
866 2 2 0 2 485 487 488
867 2 2 0 2 433 435 520
868 2 2 0 2 436 434 448
869 2 2 0 2 30 385 516
870 2 2 0 2 433 434 435
871 2 2 0 2 434 431 521
872 2 2 0 2 151 392 530
873 2 2 0 2 403 405 411
874 2 2 0 2 398 402 532
875 2 2 0 2 435 439 520
876 2 2 0 2 437 433 520
877 2 2 0 2 444 452 458
878 2 2 0 2 447 460 473
879 2 2 0 2 433 431 434
880 2 2 0 2 407 404 514
881 2 2 0 2 418 407 514
882 2 2 0 2 466 454 526
883 2 2 0 2 385 31 513
884 2 2 0 2 152 151 530
885 2 2 0 2 137 138 519
886 2 2 0 2 30 31 385
887 2 2 0 2 452 520 528
888 2 2 0 2 380 137 519
889 2 2 0 2 426 424 463
890 2 2 0 2 138 139 389
891 2 2 0 2 431 430 521
892 2 2 0 2 464 445 465
893 2 2 0 2 444 458 523
894 2 2 0 2 448 434 521
895 2 2 0 2 439 438 440
896 2 2 0 2 443 440 445
897 2 2 0 2 384 544 545
898 2 2 0 2 452 437 520
899 2 2 0 2 444 437 452
900 2 2 0 2 443 524 528
901 2 2 0 2 517 375 539
902 2 2 0 2 520 439 528
903 2 2 0 2 454 475 526
904 2 2 0 2 428 426 533
905 2 2 0 2 435 438 439
906 2 2 0 2 430 472 521
907 2 2 0 2 138 389 519
908 2 2 0 2 429 430 431
909 2 2 0 2 425 427 456
910 2 2 0 2 524 459 528
911 2 2 0 2 410 412 413
912 2 2 0 2 443 445 464
913 2 2 0 2 439 440 443
914 2 2 0 2 87 86 391
915 2 2 0 2 422 454 466
916 2 2 0 2 447 420 460
917 2 2 0 2 89 88 381
918 2 2 0 2 400 403 522
919 2 2 0 2 409 418 531
920 2 2 0 2 37 38 480
921 2 2 0 2 439 443 528
922 2 2 0 2 459 452 528
923 2 2 0 2 443 464 524
924 2 2 0 2 458 452 459
925 2 2 0 2 423 461 503
926 2 2 0 2 377 395 396
927 2 2 0 2 455 531 537
928 2 2 0 2 514 453 538
929 2 2 0 2 419 412 421
930 2 2 0 2 398 400 402
931 2 2 0 2 430 471 472
932 2 2 0 2 430 428 471
933 2 2 0 2 93 92 507
934 2 2 0 2 403 411 522
935 2 2 0 2 410 409 412
936 2 2 0 2 419 421 422
937 2 2 0 2 88 87 525
938 2 2 0 2 411 414 415
939 2 2 0 2 92 375 507
940 2 2 0 2 429 428 430
941 2 2 0 2 479 449 541
942 2 2 0 2 377 396 457
943 2 2 0 2 420 413 529
944 2 2 0 2 421 412 531
945 2 2 0 2 153 152 382
946 2 2 0 2 424 423 503
947 2 2 0 2 132 133 393
948 2 2 0 2 415 423 424
949 2 2 0 2 413 412 419
950 2 2 0 2 457 396 532
951 2 2 0 2 419 422 468
952 2 2 0 2 402 400 522
953 2 2 0 2 427 428 429
954 2 2 0 2 382 152 530
955 2 2 0 2 460 420 529
956 2 2 0 2 412 409 531
957 2 2 0 2 419 468 529
958 2 2 0 2 384 96 535
959 2 2 0 2 471 428 533
960 2 2 0 2 87 391 525
961 2 2 0 2 526 391 527
962 2 2 0 2 413 419 529
963 2 2 0 2 375 91 539
964 2 2 0 2 381 88 525
965 2 2 0 2 425 456 536
966 2 2 0 2 541 449 542
967 2 2 0 2 427 426 428
968 2 2 0 2 449 523 542
969 2 2 0 2 425 426 427
970 2 2 0 2 422 466 534
971 2 2 0 2 478 537 538
972 2 2 0 2 537 418 538
973 2 2 0 2 531 418 537
974 2 2 0 2 415 424 425
975 2 2 0 2 425 424 426
976 2 2 0 2 468 422 534
977 2 2 0 2 134 135 383
978 2 2 0 2 418 514 538
979 2 2 0 2 522 411 536
980 2 2 0 2 480 38 481
981 2 2 0 2 411 415 536
982 2 2 0 2 91 90 539
983 2 2 0 2 415 425 536
984 2 2 0 2 372 37 480
985 2 2 0 2 536 456 540
986 2 2 0 2 522 536 540
987 2 2 0 2 402 522 540
988 2 2 0 2 540 479 541
989 2 2 0 2 384 535 544
990 2 2 0 2 465 543 549
991 2 2 0 2 402 540 541
992 2 2 0 2 532 402 541
993 2 2 0 2 532 541 542
994 2 2 0 2 542 523 544
995 2 2 0 2 482 384 545
996 2 2 0 2 457 532 542
997 2 2 0 2 544 523 545
998 2 2 0 2 376 482 546
999 2 2 0 2 394 500 543
1000 2 2 0 2 482 545 546
1001 2 2 0 2 509 376 547
1002 2 2 0 2 500 386 549
1003 2 2 0 2 386 509 548
1004 2 2 0 2 509 547 548
1005 2 2 0 2 386 548 549
1006 2 2 0 2 376 546 547
1007 2 2 0 2 535 457 544
1008 2 2 0 2 523 458 545
1009 2 2 0 2 457 542 544
1010 2 2 0 2 545 458 546
1011 2 2 0 2 458 459 546
1012 2 2 0 2 546 459 547
1013 2 2 0 2 459 524 547
1014 2 2 0 2 547 524 548
1015 2 2 0 2 524 464 548
1016 2 2 0 2 464 465 549
1017 2 2 0 2 548 464 549
1018 2 2 0 2 486 390 550
1019 2 2 0 2 45 46 550
1020 2 2 0 2 28 29 551
1021 2 2 0 2 86 85 552
1022 2 2 0 2 139 140 553
1023 2 2 0 2 527 391 552
1024 2 2 0 2 490 492 557
1025 2 2 0 2 491 383 578
1026 2 2 0 2 380 519 577
1027 2 2 0 2 497 496 555
1028 2 2 0 2 473 460 555
1029 2 2 0 2 390 45 550
1030 2 2 0 2 29 516 551
1031 2 2 0 2 389 139 553
1032 2 2 0 2 391 86 552
1033 2 2 0 2 438 441 556
1034 2 2 0 2 467 440 556
1035 2 2 0 2 441 436 558
1036 2 2 0 2 488 487 557
1037 2 2 0 2 448 521 559
1038 2 2 0 2 393 133 569
1039 2 2 0 2 134 383 569
1040 2 2 0 2 493 488 574
1041 2 2 0 2 502 494 573
1042 2 2 0 2 466 527 576
1043 2 2 0 2 543 465 575
1044 2 2 0 2 136 380 578
1045 2 2 0 2 383 135 578
1046 2 2 0 2 483 378 579
1047 2 2 0 2 6 158 581
1048 2 2 0 2 85 6 581
1049 2 2 0 2 150 2 580
1050 2 2 0 2 7 103 582
1051 2 2 0 2 140 7 582
1052 2 2 0 2 2 28 580
1053 2 2 0 2 3 132 583
1054 2 2 0 2 46 3 583
1055 2 2 0 2 530 392 554
1056 2 2 0 2 496 382 555
1057 2 2 0 2 497 468 579
1058 2 2 0 2 488 558 574
1059 2 2 0 2 494 559 573
1060 2 2 0 2 440 438 556
1061 2 2 0 2 487 490 557
1062 2 2 0 2 436 448 558
1063 2 2 0 2 521 472 559
1064 2 2 0 2 468 534 579
1065 2 2 0 2 492 491 560
1066 2 2 0 2 518 467 577
1067 2 2 0 2 472 572 573
1068 2 2 0 2 499 470 561
1069 2 2 0 2 533 570 571
1070 2 2 0 2 481 374 571
1071 2 2 0 2 504 474 567
1072 2 2 0 2 470 462 565
1073 2 2 0 2 462 504 566
1074 2 2 0 2 469 499 562
1075 2 2 0 2 565 462 566
1076 2 2 0 2 561 470 565
1077 2 2 0 2 461 469 563
1078 2 2 0 2 499 561 562
1079 2 2 0 2 566 504 567
1080 2 2 0 2 469 562 563
1081 2 2 0 2 387 508 563
1082 2 2 0 2 373 512 561
1083 2 2 0 2 461 563 564
1084 2 2 0 2 512 387 562
1085 2 2 0 2 561 512 562
1086 2 2 0 2 508 372 564
1087 2 2 0 2 562 387 563
1088 2 2 0 2 563 508 564
1089 2 2 0 2 373 561 565
1090 2 2 0 2 513 373 565
1091 2 2 0 2 503 461 564
1092 2 2 0 2 513 565 566
1093 2 2 0 2 385 513 566
1094 2 2 0 2 463 503 568
1095 2 2 0 2 385 566 567
1096 2 2 0 2 516 385 567
1097 2 2 0 2 570 481 571
1098 2 2 0 2 564 372 568
1099 2 2 0 2 533 463 570
1100 2 2 0 2 133 134 569
1101 2 2 0 2 503 564 568
1102 2 2 0 2 372 480 568
1103 2 2 0 2 374 495 572
1104 2 2 0 2 480 481 570
1105 2 2 0 2 571 374 572
1106 2 2 0 2 471 533 571
1107 2 2 0 2 463 568 570
1108 2 2 0 2 568 480 570
1109 2 2 0 2 471 571 572
1110 2 2 0 2 472 471 572
1111 2 2 0 2 572 495 573
1112 2 2 0 2 495 502 573
1113 2 2 0 2 494 493 574
1114 2 2 0 2 465 518 575
1115 2 2 0 2 534 466 576
1116 2 2 0 2 135 136 578
1117 2 2 0 2 378 497 579
1118 2 2 0 2 551 516 584
1119 2 2 0 2 550 46 583
1120 2 2 0 2 28 551 580
1121 2 2 0 2 553 140 582
1122 2 2 0 2 552 85 581
1123 2 2 0 2 158 501 581
1124 2 2 0 2 103 394 582
1125 2 2 0 2 392 150 580
1126 2 2 0 2 132 393 583
1127 2 2 0 2 393 550 583
1128 2 2 0 2 551 392 580
1129 2 2 0 2 394 553 582
1130 2 2 0 2 501 552 581
1131 2 2 0 2 467 560 577
1132 2 2 0 2 558 448 574
1133 2 2 0 2 559 472 573
1134 2 2 0 2 474 554 584
1135 2 2 0 2 567 474 584
1136 2 2 0 2 516 567 584
1137 2 2 0 3 602 762 765
1138 2 2 0 3 711 601 766
1139 2 2 0 3 762 602 789
1140 2 2 0 3 601 711 788
1141 2 2 0 3 709 639 768
1142 2 2 0 3 693 605 696
1143 2 2 0 3 698 593 773
1144 2 2 0 3 639 709 717
1145 2 2 0 3 593 698 791
1146 2 2 0 3 696 605 779
1147 2 2 0 3 708 709 768
1148 2 2 0 3 696 597 697
1149 2 2 0 3 697 597 698
1150 2 2 0 3 607 711 766
1151 2 2 0 3 762 606 765
1152 2 2 0 3 680 729 788
1153 2 2 0 3 690 679 789
1154 2 2 0 3 678 769 773
1155 2 2 0 3 605 693 763
1156 2 2 0 3 769 699 773
1157 2 2 0 3 604 764 767
1158 2 2 0 3 773 593 790
1159 2 2 0 3 695 772 787
1160 2 2 0 3 701 771 785
1161 2 2 0 3 687 770 783
1162 2 2 0 3 729 680 790
1163 2 2 0 3 699 656 772
1164 2 2 0 3 697 698 699
1165 2 2 0 3 679 690 792
1166 2 2 0 3 717 709 767
1167 2 2 0 3 602 690 789
1168 2 2 0 3 729 601 788
1169 2 2 0 3 656 699 769
1170 2 2 0 3 767 764 797
1171 2 2 0 3 743 737 798
1172 2 2 0 3 597 696 779
1173 2 2 0 3 660 743 798
1174 2 2 0 3 771 659 785
1175 2 2 0 3 770 672 783
1176 2 2 0 3 772 656 787
1177 2 2 0 3 715 714 757
1178 2 2 0 3 689 686 747
1179 2 2 0 3 674 689 747
1180 2 2 0 3 665 758 759
1181 2 2 0 3 664 715 757
1182 2 2 0 3 681 711 753
1183 2 2 0 3 113 585 608
1184 2 2 0 3 114 113 608
1185 2 2 0 3 681 753 755
1186 2 2 0 3 686 595 747
1187 2 2 0 3 711 710 753
1188 2 2 0 3 723 750 752
1189 2 2 0 3 595 114 608
1190 2 2 0 3 595 608 745
1191 2 2 0 3 608 585 609
1192 2 2 0 3 115 595 686
1193 2 2 0 3 115 114 595
1194 2 2 0 3 58 587 687
1195 2 2 0 3 56 57 598
1196 2 2 0 3 629 702 727
1197 2 2 0 3 701 706 712
1198 2 2 0 3 590 55 703
1199 2 2 0 3 116 686 688
1200 2 2 0 3 55 56 703
1201 2 2 0 3 702 661 727
1202 2 2 0 3 688 686 689
1203 2 2 0 3 595 745 747
1204 2 2 0 3 704 60 712
1205 2 2 0 3 691 692 700
1206 2 2 0 3 692 603 693
1207 2 2 0 3 692 693 694
1208 2 2 0 3 56 598 703
1209 2 2 0 3 154 153 707
1210 2 2 0 3 117 116 688
1211 2 2 0 3 706 704 712
1212 2 2 0 3 155 592 690
1213 2 2 0 3 591 62 691
1214 2 2 0 3 591 691 700
1215 2 2 0 3 694 693 696
1216 2 2 0 3 692 695 700
1217 2 2 0 3 708 596 709
1218 2 2 0 3 609 585 610
1219 2 2 0 3 62 63 691
1220 2 2 0 3 116 115 686
1221 2 2 0 3 607 710 711
1222 2 2 0 3 59 60 704
1223 2 2 0 3 588 117 688
1224 2 2 0 3 691 603 692
1225 2 2 0 3 742 111 746
1226 2 2 0 3 607 121 710
1227 2 2 0 3 707 596 708
1228 2 2 0 3 57 58 687
1229 2 2 0 3 720 636 722
1230 2 2 0 3 753 715 755
1231 2 2 0 3 602 156 690
1232 2 2 0 3 685 661 702
1233 2 2 0 3 671 661 685
1234 2 2 0 3 63 603 691
1235 2 2 0 3 694 696 697
1236 2 2 0 3 702 629 739
1237 2 2 0 3 157 156 602
1238 2 2 0 3 63 64 603
1239 2 2 0 3 636 720 723
1240 2 2 0 3 60 61 712
1241 2 2 0 3 120 119 600
1242 2 2 0 3 153 596 707
1243 2 2 0 3 714 588 757
1244 2 2 0 3 718 720 722
1245 2 2 0 3 155 154 592
1246 2 2 0 3 661 631 727
1247 2 2 0 3 666 633 667
1248 2 2 0 3 622 624 728
1249 2 2 0 3 591 700 701
1250 2 2 0 3 640 631 661
1251 2 2 0 3 151 150 604
1252 2 2 0 3 615 718 722
1253 2 2 0 3 653 651 656
1254 2 2 0 3 629 728 739
1255 2 2 0 3 624 725 728
1256 2 2 0 3 615 611 718
1257 2 2 0 3 705 704 706
1258 2 2 0 3 616 615 617
1259 2 2 0 3 667 633 730
1260 2 2 0 3 118 588 714
1261 2 2 0 3 592 154 707
1262 2 2 0 3 613 611 615
1263 2 2 0 3 587 704 705
1264 2 2 0 3 723 667 730
1265 2 2 0 3 156 155 690
1266 2 2 0 3 119 118 714
1267 2 2 0 3 600 119 714
1268 2 2 0 3 624 626 725
1269 2 2 0 3 629 622 728
1270 2 2 0 3 636 621 722
1271 2 2 0 3 666 667 676
1272 2 2 0 3 122 121 607
1273 2 2 0 3 618 617 619
1274 2 2 0 3 121 120 710
1275 2 2 0 3 626 630 725
1276 2 2 0 3 630 637 638
1277 2 2 0 3 734 662 735
1278 2 2 0 3 718 610 719
1279 2 2 0 3 647 652 749
1280 2 2 0 3 652 734 735
1281 2 2 0 3 617 615 722
1282 2 2 0 3 600 714 715
1283 2 2 0 3 621 617 722
1284 2 2 0 3 638 670 682
1285 2 2 0 3 638 637 670
1286 2 2 0 3 619 617 621
1287 2 2 0 3 633 625 730
1288 2 2 0 3 54 55 590
1289 2 2 0 3 640 661 671
1290 2 2 0 3 625 623 730
1291 2 2 0 3 718 719 720
1292 2 2 0 3 626 628 630
1293 2 2 0 3 611 610 718
1294 2 2 0 3 650 649 651
1295 2 2 0 3 120 600 710
1296 2 2 0 3 630 635 637
1297 2 2 0 3 61 591 712
1298 2 2 0 3 53 54 713
1299 2 2 0 3 623 636 730
1300 2 2 0 3 619 621 622
1301 2 2 0 3 616 617 618
1302 2 2 0 3 644 646 647
1303 2 2 0 3 634 633 666
1304 2 2 0 3 151 604 736
1305 2 2 0 3 48 49 724
1306 2 2 0 3 716 639 717
1307 2 2 0 3 586 52 726
1308 2 2 0 3 52 53 726
1309 2 2 0 3 53 713 726
1310 2 2 0 3 647 646 648
1311 2 2 0 3 619 622 629
1312 2 2 0 3 630 638 725
1313 2 2 0 3 54 590 713
1314 2 2 0 3 638 683 725
1315 2 2 0 3 638 682 683
1316 2 2 0 3 683 682 684
1317 2 2 0 3 587 59 704
1318 2 2 0 3 50 51 721
1319 2 2 0 3 725 683 728
1320 2 2 0 3 636 723 730
1321 2 2 0 3 61 62 591
1322 2 2 0 3 692 694 695
1323 2 2 0 3 613 615 616
1324 2 2 0 3 623 621 636
1325 2 2 0 3 609 610 611
1326 2 2 0 3 637 639 716
1327 2 2 0 3 650 651 653
1328 2 2 0 3 670 637 716
1329 2 2 0 3 592 707 737
1330 2 2 0 3 622 621 623
1331 2 2 0 3 145 146 593
1332 2 2 0 3 637 635 639
1333 2 2 0 3 51 586 721
1334 2 2 0 3 113 112 585
1335 2 2 0 3 118 117 588
1336 2 2 0 3 58 59 587
1337 2 2 0 3 110 109 589
1338 2 2 0 3 51 52 586
1339 2 2 0 3 622 623 624
1340 2 2 0 3 658 655 678
1341 2 2 0 3 630 628 635
1342 2 2 0 3 49 599 724
1343 2 2 0 3 591 701 712
1344 2 2 0 3 707 708 737
1345 2 2 0 3 640 671 732
1346 2 2 0 3 662 664 665
1347 2 2 0 3 624 623 625
1348 2 2 0 3 648 649 650
1349 2 2 0 3 647 648 652
1350 2 2 0 3 658 678 680
1351 2 2 0 3 619 629 727
1352 2 2 0 3 649 646 731
1353 2 2 0 3 624 625 626
1354 2 2 0 3 146 147 729
1355 2 2 0 3 599 50 721
1356 2 2 0 3 49 50 599
1357 2 2 0 3 651 649 659
1358 2 2 0 3 593 146 729
1359 2 2 0 3 648 646 649
1360 2 2 0 3 627 625 633
1361 2 2 0 3 618 619 727
1362 2 2 0 3 147 148 601
1363 2 2 0 3 654 662 734
1364 2 2 0 3 662 665 735
1365 2 2 0 3 654 657 662
1366 2 2 0 3 659 649 731
1367 2 2 0 3 739 684 741
1368 2 2 0 3 152 151 736
1369 2 2 0 3 631 618 727
1370 2 2 0 3 646 645 731
1371 2 2 0 3 610 585 742
1372 2 2 0 3 147 601 729
1373 2 2 0 3 657 655 658
1374 2 2 0 3 105 104 606
1375 2 2 0 3 658 680 681
1376 2 2 0 3 654 653 655
1377 2 2 0 3 648 650 734
1378 2 2 0 3 650 653 654
1379 2 2 0 3 662 657 664
1380 2 2 0 3 750 589 752
1381 2 2 0 3 634 666 668
1382 2 2 0 3 644 645 646
1383 2 2 0 3 654 655 657
1384 2 2 0 3 652 735 751
1385 2 2 0 3 626 627 628
1386 2 2 0 3 106 105 733
1387 2 2 0 3 702 739 741
1388 2 2 0 3 627 633 634
1389 2 2 0 3 620 618 631
1390 2 2 0 3 652 648 734
1391 2 2 0 3 728 683 739
1392 2 2 0 3 650 654 734
1393 2 2 0 3 643 641 672
1394 2 2 0 3 107 106 594
1395 2 2 0 3 673 614 675
1396 2 2 0 3 709 596 736
1397 2 2 0 3 632 631 640
1398 2 2 0 3 626 625 627
1399 2 2 0 3 612 611 613
1400 2 2 0 3 585 112 742
1401 2 2 0 3 616 618 620
1402 2 2 0 3 609 611 612
1403 2 2 0 3 719 742 746
1404 2 2 0 3 635 628 660
1405 2 2 0 3 735 665 759
1406 2 2 0 3 153 152 596
1407 2 2 0 3 141 142 605
1408 2 2 0 3 598 57 687
1409 2 2 0 3 683 684 739
1410 2 2 0 3 634 668 669
1411 2 2 0 3 758 689 759
1412 2 2 0 3 644 643 645
1413 2 2 0 3 685 702 741
1414 2 2 0 3 663 673 674
1415 2 2 0 3 675 614 738
1416 2 2 0 3 749 652 751
1417 2 2 0 3 642 643 644
1418 2 2 0 3 669 668 677
1419 2 2 0 3 672 641 732
1420 2 2 0 3 660 740 743
1421 2 2 0 3 641 640 732
1422 2 2 0 3 594 106 733
1423 2 2 0 3 596 152 736
1424 2 2 0 3 642 641 643
1425 2 2 0 3 105 606 733
1426 2 2 0 3 663 614 673
1427 2 2 0 3 632 641 642
1428 2 2 0 3 669 677 679
1429 2 2 0 3 612 614 663
1430 2 2 0 3 613 616 738
1431 2 2 0 3 660 628 740
1432 2 2 0 3 620 631 632
1433 2 2 0 3 628 627 740
1434 2 2 0 3 612 613 614
1435 2 2 0 3 740 669 743
1436 2 2 0 3 632 640 641
1437 2 2 0 3 634 669 740
1438 2 2 0 3 608 609 745
1439 2 2 0 3 112 111 742
1440 2 2 0 3 719 610 742
1441 2 2 0 3 627 634 740
1442 2 2 0 3 143 144 597
1443 2 2 0 3 111 110 746
1444 2 2 0 3 614 613 738
1445 2 2 0 3 616 620 738
1446 2 2 0 3 744 642 748
1447 2 2 0 3 644 647 748
1448 2 2 0 3 669 679 743
1449 2 2 0 3 667 723 752
1450 2 2 0 3 609 612 745
1451 2 2 0 3 675 744 748
1452 2 2 0 3 632 642 744
1453 2 2 0 3 715 664 755
1454 2 2 0 3 675 738 744
1455 2 2 0 3 738 620 744
1456 2 2 0 3 620 632 744
1457 2 2 0 3 723 720 750
1458 2 2 0 3 110 589 746
1459 2 2 0 3 745 663 747
1460 2 2 0 3 612 663 745
1461 2 2 0 3 710 600 753
1462 2 2 0 3 589 109 754
1463 2 2 0 3 663 674 747
1464 2 2 0 3 642 644 748
1465 2 2 0 3 720 719 750
1466 2 2 0 3 588 688 758
1467 2 2 0 3 748 647 749
1468 2 2 0 3 673 675 749
1469 2 2 0 3 658 681 755
1470 2 2 0 3 664 657 755
1471 2 2 0 3 668 760 761
1472 2 2 0 3 673 749 751
1473 2 2 0 3 674 673 751
1474 2 2 0 3 676 667 752
1475 2 2 0 3 107 594 756
1476 2 2 0 3 719 746 750
1477 2 2 0 3 675 748 749
1478 2 2 0 3 668 666 760
1479 2 2 0 3 752 589 754
1480 2 2 0 3 746 589 750
1481 2 2 0 3 689 674 759
1482 2 2 0 3 600 715 753
1483 2 2 0 3 109 108 754
1484 2 2 0 3 751 735 759
1485 2 2 0 3 754 108 756
1486 2 2 0 3 757 588 758
1487 2 2 0 3 676 754 756
1488 2 2 0 3 657 658 755
1489 2 2 0 3 108 107 756
1490 2 2 0 3 665 664 757
1491 2 2 0 3 688 689 758
1492 2 2 0 3 676 752 754
1493 2 2 0 3 760 594 761
1494 2 2 0 3 756 594 760
1495 2 2 0 3 666 676 760
1496 2 2 0 3 677 668 761
1497 2 2 0 3 674 751 759
1498 2 2 0 3 665 757 758
1499 2 2 0 3 677 761 762
1500 2 2 0 3 676 756 760
1501 2 2 0 3 594 733 761
1502 2 2 0 3 761 733 762
1503 2 2 0 3 733 606 762
1504 2 2 0 3 693 603 763
1505 2 2 0 3 64 65 763
1506 2 2 0 3 47 48 764
1507 2 2 0 3 158 157 765
1508 2 2 0 3 148 149 766
1509 2 2 0 3 697 699 772
1510 2 2 0 3 709 736 767
1511 2 2 0 3 698 597 791
1512 2 2 0 3 593 729 790
1513 2 2 0 3 635 660 768
1514 2 2 0 3 603 64 763
1515 2 2 0 3 48 724 764
1516 2 2 0 3 157 602 765
1517 2 2 0 3 601 148 766
1518 2 2 0 3 653 656 769
1519 2 2 0 3 678 655 769
1520 2 2 0 3 687 587 770
1521 2 2 0 3 701 700 771
1522 2 2 0 3 695 694 772
1523 2 2 0 3 605 142 779
1524 2 2 0 3 143 597 779
1525 2 2 0 3 643 672 786
1526 2 2 0 3 651 659 787
1527 2 2 0 3 711 681 788
1528 2 2 0 3 677 762 789
1529 2 2 0 3 145 593 791
1530 2 2 0 3 597 144 791
1531 2 2 0 3 690 592 792
1532 2 2 0 3 150 2 793
1533 2 2 0 3 8 122 794
1534 2 2 0 3 149 8 794
1535 2 2 0 3 2 47 793
1536 2 2 0 3 4 141 795
1537 2 2 0 3 6 158 796
1538 2 2 0 3 104 6 796
1539 2 2 0 3 65 4 795
1540 2 2 0 3 736 604 767
1541 2 2 0 3 639 635 768
1542 2 2 0 3 737 743 792
1543 2 2 0 3 672 770 786
1544 2 2 0 3 659 771 787
1545 2 2 0 3 655 653 769
1546 2 2 0 3 587 705 770
1547 2 2 0 3 700 695 771
1548 2 2 0 3 694 697 772
1549 2 2 0 3 743 679 792
1550 2 2 0 3 699 698 773
1551 2 2 0 3 680 678 790
1552 2 2 0 3 705 784 786
1553 2 2 0 3 716 717 774
1554 2 2 0 3 716 774 775
1555 2 2 0 3 670 716 775
1556 2 2 0 3 670 775 776
1557 2 2 0 3 682 670 776
1558 2 2 0 3 682 776 777
1559 2 2 0 3 684 682 777
1560 2 2 0 3 684 777 778
1561 2 2 0 3 741 684 778
1562 2 2 0 3 741 778 780
1563 2 2 0 3 685 741 780
1564 2 2 0 3 590 703 781
1565 2 2 0 3 781 703 782
1566 2 2 0 3 703 598 782
1567 2 2 0 3 598 687 783
1568 2 2 0 3 782 598 783
1569 2 2 0 3 724 599 774
1570 2 2 0 3 774 599 775
1571 2 2 0 3 599 721 775
1572 2 2 0 3 775 721 776
1573 2 2 0 3 721 586 776
1574 2 2 0 3 706 701 785
1575 2 2 0 3 776 586 777
1576 2 2 0 3 586 726 777
1577 2 2 0 3 705 706 784
1578 2 2 0 3 777 726 778
1579 2 2 0 3 784 706 785
1580 2 2 0 3 726 713 778
1581 2 2 0 3 142 143 779
1582 2 2 0 3 778 713 780
1583 2 2 0 3 713 590 780
1584 2 2 0 3 671 685 781
1585 2 2 0 3 671 781 782
1586 2 2 0 3 732 671 782
1587 2 2 0 3 732 782 783
1588 2 2 0 3 672 732 783
1589 2 2 0 3 731 645 784
1590 2 2 0 3 731 784 785
1591 2 2 0 3 659 731 785
1592 2 2 0 3 780 590 781
1593 2 2 0 3 685 780 781
1594 2 2 0 3 784 645 786
1595 2 2 0 3 645 643 786
1596 2 2 0 3 656 651 787
1597 2 2 0 3 681 680 788
1598 2 2 0 3 679 677 789
1599 2 2 0 3 144 145 791
1600 2 2 0 3 592 737 792
1601 2 2 0 3 764 724 797
1602 2 2 0 3 763 65 795
1603 2 2 0 3 158 765 796
1604 2 2 0 3 47 764 793
1605 2 2 0 3 766 149 794
1606 2 2 0 3 122 607 794
1607 2 2 0 3 604 150 793
1608 2 2 0 3 606 104 796
1609 2 2 0 3 141 605 795
1610 2 2 0 3 737 708 798
1611 2 2 0 3 768 660 798
1612 2 2 0 3 605 763 795
1613 2 2 0 3 765 606 796
1614 2 2 0 3 764 604 793
1615 2 2 0 3 607 766 794
1616 2 2 0 3 678 773 790
1617 2 2 0 3 770 705 786
1618 2 2 0 3 771 695 787
1619 2 2 0 3 708 768 798
1620 2 2 0 3 717 767 797
1621 2 2 0 3 774 717 797
1622 2 2 0 3 724 774 797
$EndElements
